<?xml version="1.0" encoding="UTF-8" standalone="no"?>
<svg
   xmlns:dc="http://purl.org/dc/elements/1.1/"
   xmlns:cc="http://creativecommons.org/ns#"
   xmlns:rdf="http://www.w3.org/1999/02/22-rdf-syntax-ns#"
   xmlns:svg="http://www.w3.org/2000/svg"
   xmlns="http://www.w3.org/2000/svg"
   xmlns:sodipodi="http://sodipodi.sourceforge.net/DTD/sodipodi-0.dtd"
   xmlns:inkscape="http://www.inkscape.org/namespaces/inkscape"
   version="1.1"
   id="Ebene_1"
   x="0px"
   y="0px"
   width="162.157"
   height="132.987"
   viewBox="0 0 162.15699 132.98699"
   enable-background="new 0 0 841.89 595.275"
   xml:space="preserve"
   sodipodi:docname="Logo_GIScience_HD_cropped.svg"
   inkscape:version="1.0.1 (3bc2e813f5, 2020-09-07)"><metadata
   id="metadata53"><rdf:RDF><cc:Work
       rdf:about=""><dc:format>image/svg+xml</dc:format><dc:type
         rdf:resource="http://purl.org/dc/dcmitype/StillImage" /><dc:title></dc:title></cc:Work></rdf:RDF></metadata><defs
   id="defs51" /><sodipodi:namedview
   pagecolor="#ffffff"
   bordercolor="#666666"
   borderopacity="1"
   objecttolerance="10"
   gridtolerance="10"
   guidetolerance="10"
   inkscape:pageopacity="0"
   inkscape:pageshadow="2"
   inkscape:window-width="3834"
   inkscape:window-height="2104"
   id="namedview49"
   showgrid="false"
   fit-margin-left="5"
   fit-margin-right="5"
   fit-margin-bottom="5"
   fit-margin-top="5"
   inkscape:zoom="1.6933349"
   inkscape:cx="-62.119328"
   inkscape:cy="65.587512"
   inkscape:window-x="2880"
   inkscape:window-y="24"
   inkscape:window-maximized="0"
   inkscape:current-layer="Ebene_1" />
<path
   fill="#cb9899"
   d="M 7.339,127.987 H 130.327 V 5 L 68.689,48.784 7.339,127.987 M 129.035,6.292 l -0.227,6.191 -18.243,12.277 2.563,-7.215 z m -0.226,6.702 -0.305,8.896 -21.69,13.427 3.548,-9.942 z m -0.327,9.675 -0.491,13.899 -26.709,14.287 5.225,-14.677 z m -16.398,-4.386 -2.687,7.257 -14.533,9.777 4.183,-7.79 z M 77.34,42.902 c 3.075,-2.195 6.147,-4.366 9.245,-6.541 l -5.29,8.098 -9.838,6.62 z m 4.735,1.023 5.225,-8.076 10.885,-7.707 -4.263,7.81 z m -0.43,0.677 11.908,-7.993 -5.676,10.453 -13.019,8.056 z m -1.047,17.321 7.852,-14.635 16.685,-10.27 -5.453,14.697 z m -6.314,-5.944 13.1,-8.035 -7.975,14.635 -14.308,7.645 z m 18.081,19.944 8.465,-23.737 c 9.04,-4.775 18.081,-9.552 27.118,-14.327 l -0.841,24.7 z M 99.189,53.048 90.397,76.681 68.073,85.29 79.922,63.214 Z m -7.624,25.15 35.441,-13.139 -1.946,56.186 -49.504,2.008 z m 13.877,-42.041 -16.52,10.249 5.594,-10.433 14.655,-9.818 z M 80.866,45.115 74.018,55.63 63.502,62.149 70.984,51.736 Z M 62.888,62.989 73.447,56.512 64.199,70.716 c -3.709,1.99 -7.419,3.979 -11.128,5.965 z m 7.911,-11.48 -8.299,5.597 6.311,-8.158 7.913,-5.617 z m -8.792,6.253 8.322,-5.576 -7.523,10.393 -8.651,5.35 z m -19.413,25.129 8.917,-4.693 -13.487,18.674 -8.814,3.383 z m 0.842,-1.064 10.085,-13.059 8.671,-5.349 -9.84,13.63 z m 8.794,-4.02 11.17,-5.881 -13.2,20.23 -11.458,4.428 z m 20.843,45.547 -25.968,1.023 19.883,-37.078 22.568,-8.363 z m -7.417,-35.562 -19.987,36.65 -15.987,0.654 20.333,-31.504 z m -37.573,13.937 8.773,-3.258 -19.596,27.117 -7.831,0.309 z M 28.76,125.118 17.917,125.55 37.573,98.204 49.051,93.94 Z m 22.404,-33.33 13.159,-20.354 14.39,-7.605 -11.97,21.973 z"
   id="path2" />
<g
   id="g22"
   transform="translate(-330.407,-232.05)">
	<path
   fill="#980f08"
   d="m 354.479,289.983 -1.459,2.9 c -1.77,-1.313 -3.504,-1.969 -5.203,-1.969 -2.695,0 -4.822,0.949 -6.381,2.848 -1.559,1.899 -2.338,4.412 -2.338,7.541 0,2.977 0.765,5.373 2.294,7.189 1.529,1.816 3.612,2.725 6.249,2.725 1.875,0 3.393,-0.563 4.553,-1.688 V 303.5 h -3.568 v -2.988 h 7.084 v 11.215 c -0.938,0.797 -2.244,1.439 -3.92,1.926 -1.676,0.487 -3.305,0.729 -4.887,0.729 -3.551,0 -6.354,-1.203 -8.411,-3.611 -2.057,-2.408 -3.085,-5.611 -3.085,-9.607 0,-3.984 1.128,-7.215 3.384,-9.694 2.256,-2.479 5.3,-3.718 9.132,-3.718 2.682,-0.002 4.868,0.743 6.556,2.231 z"
   id="path4" />
	<path
   fill="#980f08"
   d="M 361.598,313.941 V 288.19 h 3.516 v 25.751 z"
   id="path6" />
	<path
   fill="#980f08"
   d="m 369.895,313.115 1.055,-3.375 c 0.504,0.398 1.257,0.738 2.259,1.02 1.002,0.282 1.966,0.422 2.892,0.422 1.395,0 2.514,-0.34 3.357,-1.02 0.843,-0.68 1.266,-1.617 1.266,-2.813 0,-0.996 -0.319,-1.875 -0.958,-2.637 -0.639,-0.762 -1.729,-1.699 -3.27,-2.813 -1.541,-1.114 -2.663,-2.15 -3.366,-3.111 -0.703,-0.961 -1.055,-2.162 -1.055,-3.604 0,-2.32 0.735,-4.14 2.206,-5.458 1.471,-1.318 3.372,-1.978 5.704,-1.978 2.637,0 4.389,0.229 5.256,0.686 l -1.002,3.41 c -0.328,-0.27 -0.879,-0.521 -1.652,-0.756 -0.773,-0.235 -1.494,-0.352 -2.162,-0.352 -1.5,0 -2.684,0.34 -3.551,1.02 -0.867,0.68 -1.301,1.658 -1.301,2.936 0,0.539 0.138,1.061 0.413,1.564 0.275,0.503 0.647,0.958 1.116,1.362 0.469,0.404 1.433,1.151 2.892,2.241 1.459,1.09 2.531,2.201 3.217,3.332 0.686,1.131 1.028,2.445 1.028,3.945 0,2.332 -0.782,4.123 -2.347,5.371 -1.565,1.248 -3.63,1.871 -6.196,1.871 -0.914,0 -1.945,-0.129 -3.094,-0.387 -1.149,-0.258 -2.051,-0.548 -2.707,-0.876 z"
   id="path8" />
	<path
   fill="#980f08"
   d="m 401.992,295.713 -0.615,2.865 c -0.844,-0.668 -1.975,-1.002 -3.393,-1.002 -2.156,0 -3.899,0.853 -5.229,2.558 -1.33,1.705 -1.995,3.799 -1.995,6.283 0,1.523 0.431,2.74 1.292,3.648 0.861,0.908 1.843,1.361 2.944,1.361 1.699,0 3.328,-0.521 4.887,-1.564 l -0.369,3.41 c -1.535,0.68 -3.217,1.02 -5.045,1.02 -2.32,0 -4.102,-0.664 -5.344,-1.994 -1.242,-1.33 -1.863,-3.098 -1.863,-5.301 0,-3.586 0.984,-6.521 2.953,-8.806 1.969,-2.285 4.477,-3.428 7.523,-3.428 1.805,0.001 3.223,0.318 4.254,0.95 z"
   id="path10" />
	<path
   fill="#980f08"
   d="m 404.664,313.941 2.848,-16.013 h -2.496 l 0.615,-2.76 h 5.748 l -3.322,18.773 z m 5.397,-26.208 c 0.645,0 1.195,0.226 1.652,0.677 0.457,0.451 0.686,1.005 0.686,1.661 0,0.645 -0.229,1.192 -0.686,1.644 -0.457,0.452 -1.008,0.677 -1.652,0.677 -0.644,0 -1.195,-0.226 -1.652,-0.677 -0.457,-0.451 -0.686,-0.999 -0.686,-1.644 0,-0.656 0.229,-1.21 0.686,-1.661 0.457,-0.451 1.007,-0.677 1.652,-0.677 z"
   id="path12" />
	<path
   fill="#980f08"
   d="m 418.744,305.047 c -0.105,0.563 -0.158,1.102 -0.158,1.617 0,1.547 0.434,2.736 1.301,3.568 0.867,0.832 2.08,1.248 3.639,1.248 1.383,0 2.777,-0.51 4.184,-1.529 l -0.352,3.41 c -1.875,0.621 -3.533,0.932 -4.975,0.932 -4.852,0 -7.277,-2.719 -7.277,-8.156 0,-3.199 1.02,-5.895 3.059,-8.085 2.039,-2.191 4.605,-3.287 7.699,-3.287 1.863,0 3.352,0.398 4.465,1.195 1.113,0.797 1.67,1.934 1.67,3.41 0,2.051 -0.867,3.668 -2.602,4.852 -1.735,1.184 -3.861,1.775 -6.381,1.775 -1.688,-0.001 -3.112,-0.317 -4.272,-0.95 z m 0.58,-2.426 c 0.891,0.398 1.939,0.598 3.146,0.598 1.828,0 3.322,-0.295 4.482,-0.887 1.16,-0.592 1.74,-1.457 1.74,-2.594 0,-1.441 -0.996,-2.162 -2.988,-2.162 -3.034,10e-4 -5.161,1.682 -6.38,5.045 z"
   id="path14" />
	<path
   fill="#980f08"
   d="m 445.41,313.941 1.969,-10.951 c 0.176,-0.973 0.264,-1.781 0.264,-2.426 0,-1.992 -1.037,-2.988 -3.111,-2.988 -0.797,0 -1.649,0.234 -2.558,0.703 -0.909,0.469 -1.632,1.025 -2.171,1.669 l -2.443,13.992 h -3.375 l 2.531,-14.273 c 0.059,-0.328 0.088,-0.714 0.088,-1.16 0,-1.195 -0.123,-2.232 -0.369,-3.111 l 3.234,-0.633 c 0.316,1.711 0.469,2.643 0.457,2.795 1.43,-1.863 3.492,-2.795 6.188,-2.795 3.398,0 5.098,1.734 5.098,5.203 0,0.691 -0.076,1.465 -0.229,2.32 l -2.021,11.654 h -3.552 z"
   id="path16" />
	<path
   fill="#980f08"
   d="m 468.596,295.713 -0.615,2.865 c -0.844,-0.668 -1.975,-1.002 -3.393,-1.002 -2.156,0 -3.899,0.853 -5.229,2.558 -1.33,1.705 -1.995,3.799 -1.995,6.283 0,1.523 0.431,2.74 1.292,3.648 0.861,0.908 1.843,1.361 2.944,1.361 1.699,0 3.328,-0.521 4.887,-1.564 l -0.369,3.41 c -1.535,0.68 -3.217,1.02 -5.045,1.02 -2.32,0 -4.102,-0.664 -5.344,-1.994 -1.242,-1.33 -1.863,-3.098 -1.863,-5.301 0,-3.586 0.984,-6.521 2.953,-8.806 1.969,-2.285 4.477,-3.428 7.523,-3.428 1.804,0.001 3.222,0.318 4.254,0.95 z"
   id="path18" />
	<path
   fill="#980f08"
   d="m 474.309,305.047 c -0.105,0.563 -0.158,1.102 -0.158,1.617 0,1.547 0.434,2.736 1.301,3.568 0.867,0.832 2.08,1.248 3.639,1.248 1.383,0 2.777,-0.51 4.184,-1.529 l -0.352,3.41 c -1.875,0.621 -3.533,0.932 -4.975,0.932 -4.852,0 -7.277,-2.719 -7.277,-8.156 0,-3.199 1.02,-5.895 3.059,-8.085 2.039,-2.191 4.605,-3.287 7.699,-3.287 1.863,0 3.352,0.398 4.465,1.195 1.113,0.797 1.67,1.934 1.67,3.41 0,2.051 -0.867,3.668 -2.602,4.852 -1.735,1.184 -3.861,1.775 -6.381,1.775 -1.688,-0.001 -3.112,-0.317 -4.272,-0.95 z m 0.58,-2.426 c 0.891,0.398 1.939,0.598 3.146,0.598 1.828,0 3.322,-0.295 4.482,-0.887 1.16,-0.592 1.74,-1.457 1.74,-2.594 0,-1.441 -0.996,-2.162 -2.988,-2.162 -3.035,10e-4 -5.162,1.682 -6.38,5.045 z"
   id="path20" />
</g>
<g
   id="g24"
   transform="translate(-330.407,-232.05)">
</g>
<g
   id="g26"
   transform="translate(-330.407,-232.05)">
</g>
<g
   id="g28"
   transform="translate(-330.407,-232.05)">
</g>
<g
   id="g30"
   transform="translate(-330.407,-232.05)">
</g>
<g
   id="g32"
   transform="translate(-330.407,-232.05)">
</g>
<g
   id="g34"
   transform="translate(-330.407,-232.05)">
</g>
<g
   id="g36"
   transform="translate(-330.407,-232.05)">
</g>
<g
   id="g38"
   transform="translate(-330.407,-232.05)">
</g>
<g
   id="g40"
   transform="translate(-330.407,-232.05)">
</g>
<g
   id="g42"
   transform="translate(-330.407,-232.05)">
</g>
<g
   id="g44"
   transform="translate(-330.407,-232.05)">
</g>
<g
   id="g46"
   transform="translate(-330.407,-232.05)">
</g>
</svg>
