<?xml version="1.0" encoding="UTF-8"?>
<!DOCTYPE svg PUBLIC "-//W3C//DTD SVG 1.1//EN" "http://www.w3.org/Graphics/SVG/1.1/DTD/svg11.dtd">
<!-- Creator: CorelDRAW X7 -->
<svg xmlns="http://www.w3.org/2000/svg" xml:space="preserve" width="8.30709in" height="3.37546in" version="1.1" style="shape-rendering:geometricPrecision; text-rendering:geometricPrecision; image-rendering:optimizeQuality; fill-rule:evenodd; clip-rule:evenodd"
viewBox="0 0 15923 6470"
 xmlns:xlink="http://www.w3.org/1999/xlink">
 <defs>
  <style type="text/css">
   <![CDATA[
    .fil3 {fill:#C60427}
    .fil0 {fill:white}
    .fil2 {fill:#7A000A;fill-rule:nonzero}
    .fil1 {fill:#C60427;fill-rule:nonzero}
    .fil4 {fill:white;fill-rule:nonzero}
   ]]>
  </style>
 </defs>
 <g id="Layer_x0020_1">
  <metadata id="CorelCorpID_0Corel-Layer"/>
  <g id="_541761608">
   <polygon class="fil0" points="0,6470 15923,6470 15923,0 0,0 "/>
   <g>
    <path class="fil1" d="M4840 3883c-111,0 -198,-28 -260,-83 -62,-56 -97,-136 -104,-242l187 0c7,57 25,98 55,121 29,24 73,36 131,36 111,0 167,-46 167,-137 0,-41 -11,-73 -33,-94 -22,-22 -57,-37 -105,-45l-98 -16c-188,-31 -281,-127 -281,-289 0,-96 32,-172 95,-228 64,-57 148,-85 254,-85 102,0 183,27 242,82 60,54 94,130 102,228l-189 0c-3,-50 -18,-87 -44,-110 -26,-23 -64,-34 -114,-34 -52,0 -90,12 -116,35 -26,24 -39,56 -39,97 0,36 11,65 34,86 23,21 59,36 109,45l109 20c179,32 268,129 268,291 0,105 -33,184 -100,239 -67,56 -157,83 -270,83zm773 -337l-83 96 0 232 -186 0 0 -1038 186 0 0 581 253 -325 221 0 -268 311 288 471 -226 0 -185 -328zm624 -7l0 21c0,58 13,100 39,125 26,25 63,37 112,37 37,0 66,-8 87,-23 21,-16 32,-37 34,-66l2 -4 177 0 0 7c0,75 -27,134 -82,179 -56,46 -131,68 -226,68 -100,0 -180,-29 -239,-86 -59,-58 -89,-147 -89,-267l0 -95c0,-117 29,-205 86,-264 57,-59 136,-88 236,-88 98,0 176,30 234,89 57,59 86,147 86,263l0 104 -457 0zm137 -297c-44,0 -78,13 -102,38 -23,25 -35,67 -35,126l0 5 271 0 0 -20c0,-99 -45,-149 -134,-149zm689 -19l0 413c0,54 25,80 76,80l59 0 0 158 -89 0c-71,0 -127,-20 -169,-61 -41,-40 -62,-95 -62,-164l0 -426 -109 0 0 -131 109 0 0 -153 185 -65 0 218 150 0 0 131 -150 0zm561 660c-99,0 -176,-26 -233,-80 -56,-53 -85,-135 -85,-248l0 -146c0,-111 29,-193 85,-246 57,-53 134,-80 233,-80 96,0 171,25 225,74 54,49 81,117 81,204l0 15 -177 0 0 -9c0,-37 -11,-66 -34,-87 -22,-21 -53,-32 -92,-32 -91,0 -136,55 -136,164l0 142c0,59 12,101 36,126 23,25 57,38 100,38 39,0 70,-10 92,-30 23,-20 34,-49 34,-85l0 -9 177 0 0 11c0,86 -27,154 -81,204 -54,49 -129,74 -225,74zm455 -1047l187 0 0 325c23,-26 50,-45 81,-58 31,-13 64,-20 99,-20 80,0 143,25 187,75 44,49 66,118 66,206l0 510 -187 0 0 -487c0,-45 -11,-80 -33,-103 -22,-24 -51,-36 -88,-36 -36,0 -66,13 -90,37 -23,24 -35,58 -35,102l0 487 -187 0 0 -1038zm1713 0l0 1038 -197 0 0 -615 -197 415 -132 0 -200 -419 0 619 -197 0 0 -1038 197 0 266 573 263 -573 197 0zm453 247c99,0 175,23 228,70 54,47 80,116 80,207l0 514 -180 0 0 -68c-26,27 -53,47 -81,59 -27,12 -62,18 -104,18 -81,0 -143,-21 -187,-65 -44,-43 -66,-102 -66,-179 0,-70 24,-125 71,-166 47,-40 112,-61 197,-61l165 0 0 -61c0,-83 -41,-125 -125,-125 -35,0 -63,9 -83,26 -21,18 -31,41 -31,70l0 5 -173 0 0 -6c0,-74 26,-131 78,-174 52,-43 123,-64 211,-64zm-15 650c49,0 84,-12 106,-34 21,-23 32,-57 32,-103l0 -56 -135 0c-78,0 -118,32 -118,95 0,65 39,98 115,98zm486 -641l181 0 0 80c47,-59 106,-89 179,-89 79,0 142,27 191,80 50,53 74,134 74,242l0 155c0,108 -24,189 -74,243 -49,53 -110,80 -185,80 -77,0 -137,-26 -180,-80l0 306 -186 0 0 -1017zm318 626c81,0 121,-55 121,-164l0 -142c0,-58 -12,-100 -34,-125 -23,-26 -53,-39 -91,-39 -40,0 -72,15 -95,43 -23,28 -35,68 -35,121l0 142c0,53 12,94 36,122 23,28 56,42 98,42z"/>
    <path class="fil2" d="M12144 3008l-264 0 0 866 -199 0 0 -866 -265 0 0 -172 728 0 0 172zm293 875c-98,0 -175,-26 -232,-80 -57,-53 -85,-135 -85,-248l0 -146c0,-111 28,-193 85,-246 57,-53 134,-80 232,-80 98,0 174,27 231,80 56,53 84,135 84,246l0 146c0,113 -28,195 -84,248 -57,54 -133,80 -231,80zm0 -165c87,0 130,-55 130,-164l0 -142c0,-109 -43,-164 -130,-164 -88,0 -132,55 -132,164l0 142c0,109 44,164 132,164zm767 165c-98,0 -175,-26 -232,-80 -57,-53 -85,-135 -85,-248l0 -146c0,-111 28,-193 85,-246 57,-53 134,-80 232,-80 98,0 174,27 230,80 57,53 85,135 85,246l0 146c0,113 -28,195 -85,248 -56,54 -132,80 -230,80zm0 -165c87,0 130,-55 130,-164l0 -142c0,-109 -43,-164 -130,-164 -88,0 -132,55 -132,164l0 142c0,109 44,164 132,164zm701 156c-75,0 -133,-20 -175,-62 -42,-41 -62,-99 -62,-176l0 -800 186 0 0 788c0,33 6,55 17,69 12,13 31,20 57,20l63 0 0 161 -86 0z"/>
    <g>
     <path class="fil2" d="M2456 3917c-29,-31 -63,-66 -95,-97 -163,-161 -292,-290 -292,-562 0,-112 20,-226 63,-332 40,-98 97,-189 175,-273l0 0 11 -11 9 -12 0 0c91,-88 192,-166 301,-220 97,-49 203,-78 309,-78 112,0 226,29 332,81 115,54 224,132 313,217l0 0c109,109 189,207 243,304 55,98 78,198 72,304 -6,97 -37,201 -89,304 -54,117 -135,232 -220,338l0 0 -519 639 0 0c-49,54 -103,83 -158,83 -54,3 -109,-26 -163,-83l0 0 -516 -568 -3 -2 0 0c-97,-98 -169,-210 -220,-330 -52,-126 -78,-258 -78,-390 0,-131 26,-260 75,-384 46,-111 112,-220 200,-312l0 -3 12 -8 11 -15 0 0c103,-103 221,-195 347,-255 112,-57 229,-89 355,-89 126,0 258,35 381,92 132,63 258,152 359,252l37 38c229,229 372,372 347,776l-3 9 -63 203 -3 6 -149 281 -6 5 -381 493 -57 -46 381 -490 146 -275 63 -195c23,-369 -112,-501 -327,-716 -25,-23 -25,-26 -37,-37 -97,-95 -212,-181 -338,-238 -115,-52 -235,-86 -350,-86 -111,0 -220,32 -323,83 -118,57 -227,143 -327,241l0 0 -12 11 0 0c-86,92 -151,195 -194,304 -46,112 -69,232 -69,355 0,124 23,247 71,361 41,104 101,198 181,281l0 0 26 29 518 570 0 0c38,40 75,60 109,60 35,0 69,-20 103,-60l516 -636 0 0c86,-103 161,-212 212,-324 46,-94 78,-189 83,-278 6,-91 -17,-177 -66,-263 -48,-89 -126,-181 -229,-287l0 0c-83,-83 -183,-155 -289,-203 -100,-46 -204,-75 -304,-75 -94,0 -189,26 -278,69 -100,51 -195,126 -281,209l0 0 -8 12 0 0c-75,77 -132,166 -169,260 -40,98 -61,201 -61,304 0,244 121,361 273,510 28,32 60,63 97,100l-54 49 0 0z"/>
     <path class="fil1" d="M3043 2510c-11,-8 -14,-26 -6,-37 6,-14 23,-17 38,-9l550 353c11,8 17,26 8,37 -8,14 -25,17 -37,9l-553 -353 0 0zm648 516c14,9 17,26 8,37 -8,12 -26,14 -37,6l-805 -542c-14,-8 -17,-25 -9,-37 9,-14 26,-17 38,-9l805 545 0 0zm28 249c12,9 15,26 6,37 -9,12 -26,15 -37,6l-83 -57c3,6 0,11 -3,17 -9,14 -26,17 -37,9l-986 -645c-12,-9 -14,-26 -9,-37 9,-12 26,-18 40,-9l820 539 -777 -556c-14,-12 -17,-29 -5,-40 8,-12 25,-15 37,-6l1034 742 0 0zm-14 103c11,6 17,23 11,38 -8,11 -25,17 -37,11l-1258 -682c-14,-8 -17,-23 -11,-37 8,-14 23,-17 37,-12l1258 682zm-60 207c14,8 17,25 8,37 -5,14 -22,17 -37,9l-1235 -786c-14,-8 -17,-25 -8,-37 8,-14 25,-17 37,-8l1235 785zm-1315 -539c-15,-6 -20,-23 -12,-34 6,-15 23,-20 35,-12l1203 631c11,5 17,22 11,34 -8,14 -22,20 -37,11l-1200 -630zm1197 716c15,9 20,26 12,38 -9,14 -26,17 -37,11l-1270 -736c-11,-6 -17,-23 -8,-38 8,-11 23,-17 37,-8l1266 733 0 0zm-1269 -541c-3,-9 -3,-17 0,-26 9,-11 26,-17 37,-9l1121 671c14,8 17,26 8,37 -6,14 -23,17 -37,12l-1020 -614 1006 639c14,9 17,26 8,38 -8,14 -26,17 -37,8l-1146 -730c-15,-9 -17,-26 -9,-38 9,-14 26,-17 37,-8l32 20 0 0zm-54 278c-15,-6 -21,-23 -12,-35 6,-14 23,-20 34,-14l983 479c15,5 20,22 15,37 -6,11 -23,17 -38,11l-982 -478zm1071 553c15,5 20,23 15,37 -9,11 -23,17 -38,11l-28 -14 0 0c-6,14 -23,20 -38,14l-484 -186c-14,-6 -20,-23 -14,-37 6,-12 20,-20 34,-14l284 114 -714 -352c-14,-9 -20,-23 -11,-37 6,-15 23,-21 34,-12l960 476 0 0zm-782 -20c-14,-6 -23,-20 -20,-35 6,-14 20,-23 34,-17l608 198c14,3 23,20 17,34 -3,12 -17,20 -32,17l0 0 -533 -106c-14,-2 -22,-17 -20,-31 3,-14 18,-26 32,-20l49 3 -135 -43 0 0z"/>
     <path class="fil3" d="M4112 2444c60,-143 -60,-341 -192,-432l-802 1117c28,143 91,249 154,350l6 11 834 -1046 0 0zm-255 -470c-135,-60 -298,-37 -404,17l-811 1072c37,35 89,55 149,57 74,9 163,-5 266,-31l800 -1115 0 0z"/>
     <path class="fil2" d="M3441 1883c12,-15 35,-20 52,-6 17,11 20,34 6,49l-857 1137c37,35 89,55 149,57 74,9 163,-5 266,-31l831 -1158c12,-14 35,-20 52,-5 17,11 20,34 9,48l-831 1155c28,143 91,249 154,350l6 11 868 -1089c12,-17 35,-20 52,-5 14,11 17,34 6,48l-900 1132c-3,3 -6,6 -12,9 0,0 -2,3 -5,3l-608 260 -183 78 0 0c-6,3 -12,3 -17,3 -20,-3 -35,-21 -32,-41l23 -183 89 -642c0,-6 3,-11 6,-17l876 -1163 0 0z"/>
     <path class="fil4" d="M2622 3141l-75 541 138 89 536 -235 -12 -20c-63,-100 -126,-206 -157,-353 -101,26 -189,38 -267,32 -63,-6 -117,-23 -163,-54l0 0z"/>
    </g>
   </g>
  </g>
 </g>
</svg>
