<?xml version="1.0" encoding="UTF-8" standalone="no"?>
<!-- Created with Inkscape (http://www.inkscape.org/) -->

<svg
   xmlns:dc="http://purl.org/dc/elements/1.1/"
   xmlns:cc="http://creativecommons.org/ns#"
   xmlns:rdf="http://www.w3.org/1999/02/22-rdf-syntax-ns#"
   xmlns:svg="http://www.w3.org/2000/svg"
   xmlns="http://www.w3.org/2000/svg"
   xmlns:xlink="http://www.w3.org/1999/xlink"
   xmlns:sodipodi="http://sodipodi.sourceforge.net/DTD/sodipodi-0.dtd"
   xmlns:inkscape="http://www.inkscape.org/namespaces/inkscape"
   id="svg1"
   sodipodi:version="0.32"
   inkscape:version="0.92.4 (5da689c313, 2019-01-14)"
   width="150pt"
   height="150pt"
   sodipodi:docname="globe_1.svg"
   inkscape:export-filename="/home/lucas/imagen/mundo.png"
   inkscape:export-xdpi="72.000000"
   inkscape:export-ydpi="72.000000"
   version="1.1"
   viewBox="0 0 167.50003 167.5">
  <defs
     id="defs3">
    <linearGradient
       id="linearGradient2163">
      <stop
         style="stop-color:#ffffff;stop-opacity:1.0000000;"
         offset="0.0000000"
         id="stop2164" />
      <stop
         style="stop-color:#fffdff;stop-opacity:0.41292134;"
         offset="1.0000000"
         id="stop2165" />
    </linearGradient>
    <radialGradient
       inkscape:collect="always"
       xlink:href="#linearGradient2163"
       id="radialGradient1582"
       cx="0.50814331"
       cy="-0.19318181"
       r="0.88088119"
       fx="0.50814331"
       fy="-0.19318181" />
    <filter
       style="color-interpolation-filters:sRGB"
       inkscape:label="Greyscale"
       id="filter4546">
      <feColorMatrix
         values="0.21 0.72 0.072 0 0 0.21 0.72 0.072 0 0 0.21 0.72 0.072 0 0 0 0 0 1 0 "
         id="feColorMatrix4544"
         result="fbSourceGraphic" />
      <feColorMatrix
         result="fbSourceGraphicAlpha"
         in="fbSourceGraphic"
         values="0 0 0 -1 0 0 0 0 -1 0 0 0 0 -1 0 0 0 0 1 0"
         id="feColorMatrix4548" />
      <feColorMatrix
         id="feColorMatrix4550"
         values="5.89 0.72 0.072 0 0 5.89 0.72 0.072 0 0 5.89 0.72 0.072 0 0 0 0 0 1 0 "
         in="fbSourceGraphic"
         result="fbSourceGraphic" />
      <feColorMatrix
         result="fbSourceGraphicAlpha"
         in="fbSourceGraphic"
         values="0 0 0 -1 0 0 0 0 -1 0 0 0 0 -1 0 0 0 0 1 0"
         id="feColorMatrix4552" />
      <feColorMatrix
         id="feColorMatrix4554"
         values="-0.62 0.72 0.072 0 0 -0.62 0.72 0.072 0 0 -0.62 0.72 0.072 0 0 0 0 0 1 0 "
         in="fbSourceGraphic" />
    </filter>
    <filter
       style="color-interpolation-filters:sRGB"
       inkscape:label="Greyscale"
       id="filter4558">
      <feColorMatrix
         values="-0.62 0.72 0.072 0 0 -0.62 0.72 0.072 0 0 -0.62 0.72 0.072 0 0 0 0 0 1 0 "
         id="feColorMatrix4556"
         result="fbSourceGraphic" />
      <feColorMatrix
         result="fbSourceGraphicAlpha"
         in="fbSourceGraphic"
         values="0 0 0 -1 0 0 0 0 -1 0 0 0 0 -1 0 0 0 0 1 0"
         id="feColorMatrix4560" />
      <feColorMatrix
         id="feColorMatrix4562"
         values="3.54 0.72 0.072 0 0 3.54 0.72 0.072 0 0 3.54 0.72 0.072 0 0 0 0 0 1 0 "
         in="fbSourceGraphic"
         result="fbSourceGraphic" />
      <feColorMatrix
         result="fbSourceGraphicAlpha"
         in="fbSourceGraphic"
         values="0 0 0 -1 0 0 0 0 -1 0 0 0 0 -1 0 0 0 0 1 0"
         id="feColorMatrix4564" />
      <feColorMatrix
         id="feColorMatrix4566"
         values="4.95 0.72 0.072 0 0 4.95 0.72 0.072 0 0 4.95 0.72 0.072 0 0 0 0 0 1 0 "
         in="fbSourceGraphic" />
    </filter>
    <filter
       style="color-interpolation-filters:sRGB"
       inkscape:label="Greyscale"
       id="filter4570">
      <feColorMatrix
         values="-9.84 0.72 0.072 0 0 -9.84 0.72 0.072 0 0 -9.84 0.72 0.072 0 0 0 0 0 1 0 "
         id="feColorMatrix4568" />
    </filter>
  </defs>
  <sodipodi:namedview
     id="base"
     pagecolor="#ffffff"
     bordercolor="#666666"
     borderopacity="1.0"
     inkscape:pageopacity="0.0"
     inkscape:pageshadow="2"
     inkscape:zoom="1.75986"
     inkscape:cx="100.40318"
     inkscape:cy="132.52617"
     inkscape:window-width="1280"
     inkscape:window-height="961"
     inkscape:window-x="-8"
     inkscape:window-y="-8"
     showgrid="false"
     inkscape:window-maximized="1"
     inkscape:current-layer="svg1"
     fit-margin-top="0"
     fit-margin-left="0"
     fit-margin-right="0"
     fit-margin-bottom="0"
     scale-x="0.8375" />
  <metadata
     id="metadata4">
    <rdf:RDF>
      <cc:Work
         rdf:about="">
        <dc:format>image/svg+xml</dc:format>
        <dc:type
           rdf:resource="http://purl.org/dc/dcmitype/StillImage" />
        <dc:title />
      </cc:Work>
    </rdf:RDF>
  </metadata>
  <circle
     style="fill:#ffffff;fill-opacity:0.9813084;fill-rule:evenodd;stroke:#1e004d;stroke-width:4.54884291;stroke-linecap:butt;stroke-linejoin:miter;stroke-miterlimit:4;stroke-opacity:1;filter:url(#filter4558)"
     id="path919"
     transform="matrix(0.518153,0,0,0.518153,-72.929715,-32.324209)"
     cx="300.86948"
     cy="251.24321"
     r="128.84123" />
  <path
     id="path1586"
     style="opacity:1;fill:#000000;fill-opacity:0.9953271;fill-rule:evenodd;stroke:none;stroke-width:0.37545794;stroke-linecap:butt;stroke-linejoin:miter;stroke-miterlimit:4;stroke-dasharray:none;stroke-opacity:1;filter:url(#filter4546)"
     d="m 263.71875,118.375 c -31.96177,6.13217 -59.75643,23.82929 -79,48.5625 l 8.71875,-3.65625 1.59375,4.875 5.75,-7.8125 -0.375,-2.1875 3.1875,-0.84375 v 3.90625 c 0,0 3.64475,0.35524 3.15625,0.84375 -0.48851,0.48851 -7.0625,4.15625 -7.0625,4.15625 l 0.84375,3.78125 3.0625,-3.40625 4.5,-3.8125 3.0625,-4.25 -2.1875,-1 11.40625,-8.96875 -2,-2 9.28125,-7.71875 -7.84375,1.96875 -2.78125,3.1875 -6.5,1.8125 19.8125,-14.28125 6.34375,-0.5 -4.65625,3.6875 L 236.8125,133 c 0,0 6.588,-0.36099 6.34375,-1.09375 -0.24426,-0.73276 -0.75,-1.125 -0.75,-1.125 l 3.9375,-1.8125 -0.125,-1.46875 4.375,-4.28125 3.3125,-1.21875 -0.25,2.3125 5.59375,-0.46875 c 10e-6,0 9.31586,-3 8.625,-3 -0.69085,0 -9.5,1.28125 -9.5,1.28125 z m 47.8125,-0.3125 9.125,8.65625 7.21875,4.3125 -5.40625,0.71875 1.78125,2.15625 h -6.46875 l -1.78125,3.625 3.59375,3.59375 -0.71875,2.875 2.5,2.5 6.125,5.78125 0.71875,4.65625 h -2.875 L 324.625,153 l -8.28125,-6.5 2.15625,6.5 4.3125,1.4375 -6.8125,0.34375 1.4375,2.15625 -6.125,1.09375 -8.65625,10.78125 -6.8125,-3.9375 6.09375,-0.375 c 0,1e-5 3.59581,-0.71668 2.15625,-2.15625 -1.43958,-1.43957 -10.78125,-4.3125 -10.78125,-4.3125 H 288.625 L 273.53125,170.625 H 271 l -2.875,3.59375 -2.15625,6.125 5.75,-0.34375 2.875,6.46875 6.125,-2.875 2.875,-6.125 -1.8125,-2.875 5.40625,-8.65625 3.25,2.53125 -6.125,5.03125 2.875,5.03125 1.09375,5.0625 -2.53125,-0.375 -1.0625,5.03125 -4.34375,2.15625 v -2.5 l -5.375,3.96875 -2.15625,-1.8125 h -2.53125 l -0.71875,-4.3125 2.5,-0.375 -1.0625,-2.5 -2.875,0.71875 -0.375,6.8125 h -3.21875 l -3.96875,2.53125 -3.59375,0.71875 L 253,197.25 h -6.125 l 1.4375,8.65625 -3.21875,4.65625 -9.375,-3.59375 -2.5,6.125 -3.96875,4.3125 0.375,4.6875 3.9375,2.15625 v 2.875 l 2.875,-1.78125 3.96875,1.0625 5.40625,-3.25 -1.09375,-4.3125 6.84375,-2.875 1.09375,-3.21875 5.375,1.4375 5.78125,-3.625 1.78125,6.84375 c -10e-6,0 9.00103,3.2469 8.28125,5.40625 -0.71977,2.15934 -0.34375,5.03125 -0.34375,5.03125 l 1.78125,-2.15625 0.3125,-2.65625 2.9375,0.875 -2.28125,-3.5 -7.4375,-8.03125 2.15625,-2.53125 9.71875,9.71875 -0.375,4.34375 3.25,3.21875 4.6875,0.71875 -2.15625,-5.75 2.5,1.0625 c 10e-6,0 1.81147,-4.3156 2.53125,-2.15625 0.71979,2.15935 3.59375,3.25 3.59375,3.25 l 2.15625,-3.25 -1.0625,-4.65625 2,-4.34375 2.65625,-5.375 4.6875,0.34375 -1.09375,3.59375 3.25,1.8125 1.4375,-2.15625 -1.4375,-2.53125 4.6875,-3.9375 -1.8125,7.53125 5.78125,-0.34375 5.375,6.125 -2.875,2.15625 h -6.46875 l -4.3125,-1.8125 h -2.875 L 302.65625,221 h -3.21875 l -4.3125,4.6875 0.71875,4.3125 4.65625,2.875 3.59375,-1.4375 3.25,1.09375 1.8125,-1.4375 H 312.75 l -0.375,6.84375 -1.78125,6.09375 h -6.125 l -4.6875,3.25 -10.78125,-4.3125 -3.59375,-2.15625 -3.625,2.5 -2.5,5.78125 L 274.25,245.5 l -2.53125,-2.53125 -2.875,-3.96875 -6.125,-0.34375 -1.0625,-2.15625 1.4375,-1.8125 c 10e-6,0 1.0656,-5.40522 -1.09375,-6.125 -2.15934,-0.71977 -15.84375,0 -15.84375,0 l -6.09375,2.15625 -5.40625,-2.5 -6.84375,4.3125 -3.96875,1.8125 -0.34375,3.59375 -5.75,5.375 -2.90625,-2.5 -9.34375,11.5 -1.09375,13.3125 -5.03125,8.65625 6.125,3.96875 8.28125,19.0625 12.21875,1.78125 5.0625,2.53125 7.53125,-1.4375 8.28125,5.75 9,1.8125 -1.78125,13.6875 6.09375,4.65625 3.96875,11.53125 1.8125,2.875 -2.53125,2.5 -2.15625,7.5625 7.5625,6.5 2.15625,6.09375 c 0,0 6.46875,2.90212 6.46875,5.78125 -10e-6,2.87913 0.71875,3.9375 0.71875,3.9375 l 17.65625,-1.78125 12.21875,-8.28125 v -2.53125 l 7.1875,-2.5 -0.71875,-3.96875 12.96875,-9 1.09375,-10.4375 -3.25,-4.3125 0.71875,-6.125 9.71875,-12.21875 c -10e-6,0 11.49896,-7.9344 12.21875,-10.09375 0.71979,-2.15935 3.625,-18.71875 3.625,-18.71875 l -13.6875,7.9375 -4.6875,-2.53125 1.09375,-1.4375 -7.9375,-5.03125 -7.1875,-9.375 V 265.625 l -5.40625,-2.875 -7.1875,-13.65625 4.3125,2.875 1.8125,-2.875 5.75,10.4375 4.6875,2.5 -0.375,4.6875 10.4375,9.71875 2.53125,9.34375 12.96875,-7.1875 7.1875,-10.4375 9.34375,-14.75 -10.0625,-3.96875 -9.375,7.21875 2.15625,-6.84375 -2.875,2.15625 -7.53125,-8.28125 5.375,-1.09375 6.84375,4.6875 5.75,-0.71875 4.6875,1.4375 12.3125,-4.125 4.59375,0.25 h 3.28125 l -2.78125,4.34375 4.3125,-0.28125 c 10e-6,0 2.04457,-4.29917 3.0625,-3.28125 1.01794,1.01794 12.71875,25.4375 12.71875,25.4375 l 2.28125,-8.65625 -2.03125,-7.875 5.59375,-27.5 5.875,8.15625 L 411,230.625 l 2.28125,6.125 2.78125,-3.0625 1.03125,1.78125 0.25,-9.15625 -6.875,-9.65625 2.25,-12.78125 c -15.60832,-44.18539 -54.04584,-77.51929 -101.1875,-85.8125 z m -62.4542,64.57563 -2.62572,0.97702 -2.56466,0.4885 0.36638,2.32041 -2.74785,2.62572 2.56466,2.13721 3.72486,-4.27443 2.38147,-2.68678 z m 6.83908,-5.73994 c 0,0 -4.27443,3.17529 -4.27443,3.66379 0,0.48851 0.6717,2.5036 0.6717,2.5036 l -1.1602,1.70977 0.79382,3.54167 -3.72486,2.01509 2.13722,1.46551 -3.90805,2.07615 c 0,0 3.60273,-0.73275 4.09124,-0.4885 0.4885,0.24425 3.9691,0.24425 3.9691,0.24425 l 2.38148,-2.62572 -1.3434,-2.25934 0.42745,-2.13721 -1.58765,-3.17529 2.80891,-3.54167 -1.8319,-0.6717 z m -8.67098,-19.7845 2.25934,0.91595 -0.91595,1.28233 c 0,0 4.94613,0 4.94613,0.61063 0,0.61063 -3.35848,4.45762 -3.35848,4.45762 0,0 -2.74785,-0.18319 -4.57975,-2.19828 -1.8319,-2.01509 1.77084,-3.4806 1.77084,-3.4806 l -0.12213,-1.28233 m 26.19614,-21.37214 2.44253,2.19827 -3.6638,1.46552 -7.81609,7.08334 -4.15231,-0.36638 -3.66379,5.61782 -0.97701,-4.03017 -1.95403,1.95402 0.73276,1.95402 -17.34196,0.36638 -10.01438,6.22846 c 0,0 -0.12213,-4.27443 0.36638,-5.00719 0.48851,-0.73276 10.50288,-9.28162 10.50288,-9.28162 0,0 1.46552,0.24426 2.93104,0 1.46552,-0.24425 17.21984,-9.15949 17.21984,-9.15949 v -2.19827 l 3.90805,-1.8319 5.00718,1.95402 c 0,0 1.58765,-0.36638 2.68679,-0.36638 1.09914,0 6.59483,1.95403 6.59483,1.95403 l 0.24425,2.19827 z m -17.21984,-5.86208 c 0,0 8.54886,-0.85488 9.03736,-0.12212 0.48851,0.73276 1.46552,1.58764 1.46552,1.58764 l 4.27443,-0.48851 v -2.56465 c 0,0 -2.56466,-3.17529 -3.54167,-2.93104 -0.97701,0.24425 -4.39656,2.56466 -4.39656,2.56466 l -5.61782,0.85488 z m -23.74977,6.62584 c -0.69085,0.69086 -5.69953,6.39038 -5.69953,6.39038 l 7.9448,-3.88604 -0.86356,2.84977 19.77563,-13.21255 -3.88604,-3.3679 -1.46806,3.79968 -2.50434,1.12264 -0.69085,2.50434 -8.72201,4.31782 z m 55.00909,4.66325 c -0.86357,0.17272 -4.14511,1.03628 -4.14511,1.03628 l 0.34542,4.31783 c 0,0 6.30403,-4.92232 5.61317,-4.92232 -0.69085,0 -1.81348,-0.43179 -1.81348,-0.43179 z m 22.19362,1.29535 c 0,0 -9.41286,6.13131 0.86356,11.22635 -3.79968,-5.44046 -0.86356,-11.22635 -0.86356,-11.22635 z m 37.56507,191.79777 -13.21254,10.5355 0.86356,3.19519 -2.93612,4.83596 1.20899,3.3679 c 0,0 6.13131,-2.24526 6.47674,-2.93612 0.34543,-0.69085 9.58557,-14.93967 9.41286,-15.45781 -0.17271,-0.51814 -1.81349,-3.54062 -1.81349,-3.54062 z"
     transform="matrix(0.506881,0,0,0.506881,-63.335875,-27.667909)"
     inkscape:connector-curvature="0" />
  <circle
     style="fill:none;fill-opacity:0.71634617;fill-rule:evenodd;stroke:#1e004d;stroke-width:4.54884291;stroke-linecap:butt;stroke-linejoin:miter;stroke-miterlimit:4;stroke-opacity:1;filter:url(#filter4570)"
     id="path1625"
     transform="matrix(0.518153,0,0,0.518153,-72.929715,-32.324209)"
     cx="300.86948"
     cy="251.24321"
     r="128.84123" />
</svg>
