<?xml version="1.0" encoding="UTF-8" standalone="no"?>
<svg
   width="61.139668mm"
   height="13.833744mm"
   viewBox="0 0 61.139667 13.833744"
   version="1.1"
   id="svg8"
   sodipodi:docname="ohsome-quality-analyst_without_fonts.svg"
   inkscape:version="1.1.2 (0a00cf5339, 2022-02-04)"
   inkscape:export-filename="/home/jvisintini/Pictures/ohsome Logo/ohsome-quality-analyst_250px.png"
   inkscape:export-xdpi="103.86057"
   inkscape:export-ydpi="103.86057"
   xmlns:inkscape="http://www.inkscape.org/namespaces/inkscape"
   xmlns:sodipodi="http://sodipodi.sourceforge.net/DTD/sodipodi-0.dtd"
   xmlns="http://www.w3.org/2000/svg"
   xmlns:svg="http://www.w3.org/2000/svg"
   xmlns:rdf="http://www.w3.org/1999/02/22-rdf-syntax-ns#"
   xmlns:cc="http://creativecommons.org/ns#"
   xmlns:dc="http://purl.org/dc/elements/1.1/">
  <sodipodi:namedview
     pagecolor="#ffffff"
     bordercolor="#666666"
     borderopacity="1"
     objecttolerance="10"
     gridtolerance="10"
     guidetolerance="10"
     inkscape:pageopacity="0"
     inkscape:pageshadow="2"
     inkscape:window-width="3834"
     inkscape:window-height="2104"
     id="namedview22"
     showgrid="false"
     fit-margin-top="0"
     fit-margin-left="0"
     fit-margin-right="0"
     fit-margin-bottom="0"
     inkscape:zoom="6.9905232"
     inkscape:cx="22.673553"
     inkscape:cy="24.461688"
     inkscape:window-x="0"
     inkscape:window-y="24"
     inkscape:window-maximized="0"
     inkscape:current-layer="layer3"
     inkscape:document-rotation="0"
     inkscape:lockguides="false"
     inkscape:pagecheckerboard="0"
     inkscape:document-units="mm"
     inkscape:snap-text-baseline="false">
    <inkscape:grid
       type="xygrid"
       id="grid862"
       originx="2.6852711e-09"
       originy="-6.9223035e-10" />
  </sodipodi:namedview>
  <defs
     id="defs2" />
  <metadata
     id="metadata5">
    <rdf:RDF>
      <cc:Work
         rdf:about="">
        <dc:format>image/svg+xml</dc:format>
        <dc:type
           rdf:resource="http://purl.org/dc/dcmitype/StillImage" />
      </cc:Work>
    </rdf:RDF>
  </metadata>
  <g
     inkscape:groupmode="layer"
     id="layer4"
     inkscape:label="background" />
  <text
     id="text5096"
     y="17.203762"
     x="-0.2055729"
     style="font-style:normal;font-variant:normal;font-weight:normal;font-stretch:normal;font-size:7.05556px;line-height:0.330729px;font-family:'Gotham Light';-inkscape-font-specification:'Gotham Light, ';letter-spacing:0px;word-spacing:0px;fill:#505050;fill-opacity:1;stroke:none;stroke-width:0.264583px;stroke-linecap:butt;stroke-linejoin:miter;stroke-opacity:1"
     xml:space="preserve"><tspan
       style="fill:#505050;stroke-width:0.264583px"
       y="19.62849"
       x="-0.2055729"
       id="tspan5094" /></text>
  <g
     inkscape:groupmode="layer"
     id="layer1"
     inkscape:label="ohsome">
    <g
       id="g864"
       transform="translate(0,-0.10488014)">
      <g
         style="display:inline"
         id="layer2">
        <g
           transform="matrix(1.0449803,0,0,1.0449803,-0.0865708,8.4491376)"
           id="text4583"
           style="font-style:normal;font-variant:normal;font-weight:normal;font-stretch:normal;font-size:7.05556px;line-height:0.330729px;font-family:'Gotham Light';-inkscape-font-specification:'Gotham Light, ';letter-spacing:0px;word-spacing:0px;fill:#505050;fill-opacity:1;stroke:none;stroke-width:0.264583px;stroke-linecap:butt;stroke-linejoin:miter;stroke-opacity:1"
           aria-label="ohsome">
          <path
             id="path4585"
             style="font-style:normal;font-variant:normal;font-weight:normal;font-stretch:normal;font-size:9.87778px;font-family:'Gotham Medium';-inkscape-font-specification:'Gotham Medium, ';letter-spacing:1.85208px;fill:#ca2334;fill-opacity:1;stroke-width:0.264583px"
             d="m 2.8683778,-1.6929413 q 0.3654778,0 0.6519334,-0.1284111 0.2963333,-0.1382889 0.5037667,-0.3654778 0.2074333,-0.2271889 0.3160889,-0.5235223 0.1086555,-0.3062111 0.1086555,-0.6420555 v -0.019756 q 0,-0.3457222 -0.1185333,-0.6519333 Q 4.2117557,-4.3303081 3.9944445,-4.557497 3.7870112,-4.7846859 3.4906779,-4.913097 3.2042223,-5.0513859 2.8486223,-5.0513859 q -0.3556,0 -0.6519334,0.1382889 -0.2864555,0.1284111 -0.4938889,0.3556 -0.2074333,0.2173112 -0.3160889,0.5235223 -0.1086555,0.3062111 -0.1086555,0.6420555 v 0.019756 q 0,0.3457222 0.1185333,0.6519334 0.1185334,0.2963333 0.3259667,0.5334 0.2173111,0.2271889 0.5037667,0.3654778 0.2963333,0.1284111 0.6420555,0.1284107 z m -0.019756,1.03716667 q -0.5926667,0 -1.1063112,-0.20743334 Q 1.2385445,-1.0805191 0.8631889,-1.4459969 0.49771111,-1.8114747 0.29027777,-2.3053636 0.08284443,-2.7992525 0.08284443,-3.352408 v -0.019756 q 0,-0.5630333 0.20743334,-1.0569222 0.21731112,-0.4938889 0.58278891,-0.8593667 0.37535552,-0.3753556 0.87912222,-0.5926667 0.5136445,-0.2173111 1.1161889,-0.2173111 0.6025445,0 1.1063112,0.2173111 0.5136444,0.2074333 0.8791222,0.5827889 0.3753556,0.3654778 0.5827889,0.8593667 0.2074334,0.4840111 0.2074334,1.0470444 v 0.019756 q 0,0.5531556 -0.2173111,1.0470445 -0.2074334,0.4938889 -0.5827889,0.8692444 -0.3654778,0.3654778 -0.8791223,0.58278895 -0.5136445,0.21731112 -1.1161894,0.21731112 z" />
          <path
             id="path4587"
             style="font-style:normal;font-variant:normal;font-weight:normal;font-stretch:normal;font-size:9.87778px;font-family:'Gotham Medium';-inkscape-font-specification:'Gotham Medium, ';letter-spacing:1.85208px;fill:#505050;fill-opacity:1;stroke-width:0.264583px"
             d="m 8.7036754,-7.9850859 h 1.1952111 v 2.8052889 q 0.1284115,-0.1876778 0.2765775,-0.3457222 0.158045,-0.1679222 0.3556,-0.2963334 0.207434,-0.1284111 0.4445,-0.1975555 0.246945,-0.079022 0.553156,-0.079022 0.889,0 1.373011,0.5432778 0.484011,0.5432777 0.484011,1.4619111 v 3.31893343 H 12.190531 V -3.7376414 q 0,-0.6124222 -0.296333,-0.9383889 -0.286456,-0.3358445 -0.819856,-0.3358445 -0.523522,0 -0.849489,0.3457223 -0.3259665,0.3358444 -0.3259665,0.9482667 v 2.94357783 H 8.7036754 Z" />
          <path
             id="path4589"
             style="font-style:normal;font-variant:normal;font-weight:normal;font-stretch:normal;font-size:9.87778px;font-family:'Gotham Medium';-inkscape-font-specification:'Gotham Medium, ';letter-spacing:1.85208px;fill:#ca2334;fill-opacity:1;stroke-width:0.264583px"
             d="m 18.459371,-0.67553019 q -0.563034,0 -1.145823,-0.19755556 -0.572911,-0.19755555 -1.0668,-0.58278895 l 0.5334,-0.8099778 q 0.424745,0.3160889 0.859367,0.4840112 0.4445,0.1580444 0.849489,0.1580444 0.385233,0 0.592667,-0.1481666 0.217311,-0.1580445 0.217311,-0.4148667 v -0.019756 q 0,-0.1481667 -0.09878,-0.2568222 -0.0889,-0.1086556 -0.256822,-0.1876778 -0.158045,-0.079022 -0.375356,-0.1481667 -0.207433,-0.069144 -0.434622,-0.1382889 -0.286456,-0.079022 -0.582789,-0.1876777 -0.286456,-0.1086556 -0.523522,-0.2765778 -0.227189,-0.1778 -0.375356,-0.4346223 Q 16.50357,-4.0932414 16.50357,-4.468597 v -0.019756 q 0,-0.3654778 0.138289,-0.6618111 0.148167,-0.2963334 0.395111,-0.5037667 0.256823,-0.2074334 0.592667,-0.3160889 0.345722,-0.1086556 0.730956,-0.1086556 0.493889,0 0.997655,0.1580445 0.503767,0.1580444 0.918634,0.4346222 l -0.474134,0.8494889 q -0.375355,-0.2271889 -0.760589,-0.3556 -0.385233,-0.1382889 -0.7112,-0.1382889 -0.345722,0 -0.543277,0.1481667 -0.187678,0.1481667 -0.187678,0.3753555 v 0.019756 q 0,0.1382889 0.09878,0.2469445 0.09878,0.098778 0.256822,0.1876777 0.167922,0.079022 0.375355,0.1580445 0.217312,0.069144 0.4445,0.1382889 0.286456,0.0889 0.572912,0.2074333 0.286455,0.1185334 0.513644,0.2963334 0.237067,0.1679222 0.385233,0.4148666 0.148167,0.2469445 0.148167,0.6025445 v 0.019756 q 0,0.4148666 -0.148167,0.7210778 -0.148166,0.3062111 -0.414866,0.5136444 -0.256823,0.19755558 -0.612423,0.30621113 -0.3556,0.0987778 -0.760588,0.0987778 z" />
          <path
             id="path4591"
             style="font-style:normal;font-variant:normal;font-weight:normal;font-stretch:normal;font-size:9.87778px;font-family:'Gotham Medium';-inkscape-font-specification:'Gotham Medium, ';letter-spacing:1.85208px;fill:#505050;fill-opacity:1;stroke-width:0.264583px"
             d="m 25.961542,-1.6929413 q 0.365478,0 0.651934,-0.1284111 0.296333,-0.1382889 0.503766,-0.3654778 0.207434,-0.2271889 0.316089,-0.5235223 0.108656,-0.3062111 0.108656,-0.6420555 v -0.019756 q 0,-0.3457222 -0.118534,-0.6519333 -0.118533,-0.3062112 -0.335844,-0.5334001 -0.207433,-0.2271889 -0.503767,-0.3556 -0.286455,-0.1382889 -0.642055,-0.1382889 -0.3556,0 -0.651934,0.1382889 -0.286455,0.1284111 -0.493889,0.3556 -0.207433,0.2173112 -0.316088,0.5235223 -0.108656,0.3062111 -0.108656,0.6420555 v 0.019756 q 0,0.3457222 0.118533,0.6519334 0.118534,0.2963333 0.325967,0.5334 0.217311,0.2271889 0.503767,0.3654778 0.296333,0.1284111 0.642055,0.1284111 z m -0.01975,1.03716667 q -0.592667,0 -1.106311,-0.20743334 Q 24.331709,-1.0805191 23.956353,-1.4459969 23.590876,-1.8114747 23.383442,-2.3053636 23.176009,-2.7992525 23.176009,-3.352408 v -0.019756 q 0,-0.5630333 0.207433,-1.0569222 0.217311,-0.4938889 0.582789,-0.8593667 0.375356,-0.3753556 0.879122,-0.5926667 0.513645,-0.2173111 1.116189,-0.2173111 0.602545,0 1.106311,0.2173111 0.513645,0.2074333 0.879123,0.5827889 0.375355,0.3654778 0.582789,0.8593667 0.207433,0.4840111 0.207433,1.0470444 v 0.019756 q 0,0.5531556 -0.217311,1.0470445 -0.207434,0.4938889 -0.582789,0.8692444 -0.365478,0.3654778 -0.879122,0.58278895 -0.513645,0.21731112 -1.116189,0.21731112 z" />
          <path
             id="path4593"
             style="font-style:normal;font-variant:normal;font-weight:normal;font-stretch:normal;font-size:9.87778px;font-family:'Gotham Medium';-inkscape-font-specification:'Gotham Medium, ';letter-spacing:1.85208px;fill:#ca2334;fill-opacity:1;stroke-width:0.264583px"
             d="m 31.79684,-5.9897748 h 1.195211 v 0.7902223 q 0.128411,-0.1778 0.276578,-0.3358445 0.148166,-0.1580444 0.335844,-0.2864556 0.197556,-0.1284111 0.434622,-0.1975555 0.246945,-0.079022 0.543278,-0.079022 0.563034,0 0.948267,0.2568222 0.395111,0.2469444 0.602544,0.6618111 0.316089,-0.4148667 0.740834,-0.6618111 0.434622,-0.2568222 1.027289,-0.2568222 0.859366,0 1.343377,0.5235222 0.484012,0.5136445 0.484012,1.4717889 v 3.32881123 H 38.533484 V -3.7376414 q 0,-0.6223 -0.276577,-0.9482667 -0.276578,-0.3259667 -0.780345,-0.3259667 -0.493889,0 -0.809978,0.3358445 -0.306211,0.3259667 -0.306211,0.9581445 v 2.94357783 H 35.165162 V -3.7475192 q 0,-0.6124222 -0.276578,-0.9383889 -0.276577,-0.3259667 -0.780344,-0.3259667 -0.503767,0 -0.809978,0.3457223 -0.306211,0.3457222 -0.306211,0.9581445 v 2.93370003 H 31.79684 Z" />
          <path
             id="path4595"
             style="font-style:normal;font-variant:normal;font-weight:normal;font-stretch:normal;font-size:9.87778px;font-family:'Gotham Medium';-inkscape-font-specification:'Gotham Medium, ';letter-spacing:1.85208px;fill:#505050;fill-opacity:1;stroke-width:0.264583px"
             d="m 46.600852,-3.7475192 q -0.02963,-0.2864555 -0.128411,-0.5334 -0.09878,-0.2568222 -0.2667,-0.4346222 -0.167923,-0.1876778 -0.404989,-0.2963334 -0.227189,-0.1086555 -0.523523,-0.1086555 -0.553155,0 -0.918633,0.3852333 -0.3556,0.3753556 -0.434622,0.9877778 z m -1.185334,3.09174457 q -0.563033,0 -1.056922,-0.19755556 -0.484011,-0.19755561 -0.849489,-0.55315561 -0.3556,-0.3556 -0.563033,-0.8494889 -0.207434,-0.5037667 -0.207434,-1.1063111 v -0.019756 q 0,-0.5630333 0.187678,-1.0569222 0.187678,-0.4938889 0.523523,-0.8593667 0.345722,-0.3753556 0.809977,-0.5827889 0.464256,-0.2173111 1.027289,-0.2173111 0.6223,0 1.086556,0.2271889 0.474133,0.2271889 0.780344,0.6124222 0.316089,0.3852333 0.474134,0.8988778 0.158044,0.5037667 0.158044,1.0668 0,0.079022 -0.0099,0.1679223 0,0.079022 -0.0099,0.1679222 h -3.832578 q 0.09878,0.6420556 0.503766,0.9877778 0.414867,0.3358444 0.997656,0.3358444 0.4445,0 0.770467,-0.1580444 0.325966,-0.1580445 0.642055,-0.4642556 l 0.701322,0.6223 q -0.375355,0.4445001 -0.898877,0.71120006 -0.513645,0.26670001 -1.234723,0.26670001 z" />
        </g>
      </g>
    </g>
  </g>
  <g
     inkscape:groupmode="layer"
     id="layer3"
     inkscape:label="subtitle">
    <g
       aria-label="quality analys"
       id="text850"
       style="font-size:10.5833px;line-height:1.25;letter-spacing:0px;word-spacing:0px;fill:#505050;stroke-width:0.264583">
      <path
         d="m 21.147579,12.655113 q 0.137583,0 0.265994,-0.05503 0.128412,-0.05503 0.22472,-0.155928 0.09631,-0.105481 0.151341,-0.24765 0.05962,-0.142169 0.05962,-0.316442 v -0.0092 q 0,-0.174272 -0.05962,-0.316441 -0.05503,-0.146756 -0.151341,-0.24765 -0.09631,-0.100895 -0.22472,-0.155928 -0.128411,-0.05503 -0.265994,-0.05503 -0.142169,0 -0.27058,0.05503 -0.123825,0.05045 -0.220134,0.151342 -0.09631,0.100894 -0.151341,0.24765 -0.05503,0.142169 -0.05503,0.321027 v 0.0092 q 0,0.174273 0.05503,0.321028 0.05503,0.14217 0.151341,0.243064 0.09631,0.100894 0.220134,0.155928 0.128411,0.05503 0.27058,0.05503 z m 0.692503,0.02752 q -0.132998,0.18803 -0.334786,0.321027 -0.197203,0.132998 -0.490714,0.132998 -0.215547,0 -0.417336,-0.08255 -0.201789,-0.08255 -0.357717,-0.243064 -0.155927,-0.160514 -0.252236,-0.394406 -0.09631,-0.233891 -0.09631,-0.536575 v -0.0092 q 0,-0.302683 0.09172,-0.536575 0.09631,-0.233891 0.252236,-0.394405 0.155928,-0.160514 0.357717,-0.243064 0.206375,-0.08255 0.421922,-0.08255 0.298097,0 0.4953,0.128411 0.197202,0.128411 0.3302,0.298097 v -0.376061 h 0.554919 v 3.155244 h -0.554919 z"
         style="font-size:4.58611px;font-family:'Gotham Medium';-inkscape-font-specification:'Gotham Medium, Normal';fill:#ca2334"
         id="path86" />
      <path
         d="m 23.922176,13.136655 q -0.41275,0 -0.637469,-0.252236 -0.22472,-0.252237 -0.22472,-0.678745 v -1.540933 h 0.55492 v 1.375833 q 0,0.284339 0.132997,0.440267 0.137583,0.151341 0.385233,0.151341 0.243064,0 0.394405,-0.155927 0.151342,-0.160514 0.151342,-0.444853 v -1.366661 h 0.554919 v 2.421466 h -0.554919 v -0.376061 q -0.119239,0.174273 -0.298097,0.302684 -0.178858,0.123825 -0.458611,0.123825 z"
         style="font-size:4.58611px;font-family:'Gotham Medium';-inkscape-font-specification:'Gotham Medium, Normal'"
         id="path88" />
      <path
         d="m 27.425968,12.072677 q -0.105481,-0.04128 -0.252236,-0.06879 -0.14217,-0.02752 -0.302683,-0.02752 -0.261409,0 -0.408164,0.100894 -0.146756,0.100895 -0.146756,0.275167 v 0.0092 q 0,0.174272 0.132997,0.265994 0.137584,0.09172 0.334787,0.09172 0.137583,0 0.252236,-0.03669 0.119238,-0.03669 0.206375,-0.100895 0.08714,-0.06879 0.132997,-0.160514 0.05045,-0.09631 0.05045,-0.210961 z m -0.01376,1.01353 V 12.78811 q -0.123825,0.146756 -0.316442,0.24765 -0.192617,0.100895 -0.467783,0.100895 -0.174272,0 -0.3302,-0.05045 -0.155928,-0.04586 -0.275167,-0.137583 -0.114652,-0.09631 -0.18803,-0.233892 -0.06879,-0.142169 -0.06879,-0.325613 v -0.0092 q 0,-0.201788 0.07338,-0.348544 0.07338,-0.151342 0.201789,-0.24765 0.132997,-0.100894 0.311855,-0.146755 0.183445,-0.05045 0.394406,-0.05045 0.220133,0 0.371475,0.02752 0.155927,0.02752 0.298097,0.07338 v -0.04586 q 0,-0.252236 -0.155928,-0.385234 -0.151342,-0.132997 -0.440267,-0.132997 -0.206375,0 -0.366888,0.04127 -0.160514,0.04128 -0.325614,0.110067 l -0.151342,-0.444853 q 0.201789,-0.09172 0.41275,-0.146755 0.210961,-0.05503 0.509058,-0.05503 0.541161,0 0.80257,0.270581 0.261408,0.265994 0.261408,0.752122 v 1.435452 z"
         style="font-size:4.58611px;font-family:'Gotham Medium';-inkscape-font-specification:'Gotham Medium, Normal'"
         id="path90" />
      <path
         d="m 28.655045,9.738347 h 0.554919 v 3.34786 h -0.554919 z"
         style="font-size:4.58611px;font-family:'Gotham Medium';-inkscape-font-specification:'Gotham Medium, Normal'"
         id="path92" />
      <path
         d="m 29.96667,10.664741 h 0.554919 v 2.421466 H 29.96667 Z m -0.02293,-0.8988773 h 0.596194 v 0.5274023 h -0.596194 z"
         style="font-size:4.58611px;font-family:'Gotham Medium';-inkscape-font-specification:'Gotham Medium, Normal'"
         id="path94" />
      <path
         d="m 32.057932,13.127482 q -0.151342,0 -0.279753,-0.03669 -0.128411,-0.03669 -0.224719,-0.119238 -0.09172,-0.08255 -0.14217,-0.215548 -0.05045,-0.137583 -0.05045,-0.339372 v -1.274938 h -0.307269 v -0.476956 h 0.307269 V 9.9997553 h 0.554919 v 0.6649857 h 0.651228 v 0.476956 h -0.651228 v 1.187802 q 0,0.160514 0.07796,0.233892 0.07796,0.06879 0.220134,0.06879 0.178858,0 0.343958,-0.08255 v 0.454024 q -0.105481,0.05962 -0.22472,0.09172 -0.119238,0.0321 -0.275166,0.0321 z"
         style="font-size:4.58611px;font-family:'Gotham Medium';-inkscape-font-specification:'Gotham Medium, Normal'"
         id="path96" />
      <path
         d="m 33.621796,13.833743 q -0.174273,0 -0.311856,-0.04128 -0.132997,-0.03669 -0.261408,-0.10548 l 0.18803,-0.41275 q 0.07796,0.04127 0.155928,0.0642 0.08255,0.02752 0.169686,0.02752 0.119239,0 0.197203,-0.05962 0.07796,-0.05962 0.146755,-0.220134 L 32.89719,10.664741 h 0.591608 l 0.687917,1.797755 0.628297,-1.797755 h 0.57785 l -0.963083,2.490258 q -0.07338,0.188031 -0.151342,0.316442 -0.07796,0.128411 -0.174272,0.206375 -0.09631,0.08255 -0.210961,0.119238 -0.114653,0.03669 -0.261408,0.03669 z"
         style="font-size:4.58611px;font-family:'Gotham Medium';-inkscape-font-specification:'Gotham Medium, Normal'"
         id="path98" />
      <path
         d="m 38.730722,12.072677 q -0.10548,-0.04128 -0.252236,-0.06879 -0.142169,-0.02752 -0.302683,-0.02752 -0.261408,0 -0.408164,0.100894 -0.146755,0.100895 -0.146755,0.275167 v 0.0092 q 0,0.174272 0.132997,0.265994 0.137583,0.09172 0.334786,0.09172 0.137583,0 0.252236,-0.03669 0.119239,-0.03669 0.206375,-0.100895 0.08714,-0.06879 0.132997,-0.160514 0.05045,-0.09631 0.05045,-0.210961 z m -0.01376,1.01353 V 12.78811 q -0.123825,0.146756 -0.316442,0.24765 -0.192616,0.100895 -0.467783,0.100895 -0.174272,0 -0.3302,-0.05045 -0.155928,-0.04586 -0.275166,-0.137583 -0.114653,-0.09631 -0.188031,-0.233892 -0.06879,-0.142169 -0.06879,-0.325613 v -0.0092 q 0,-0.201788 0.07338,-0.348544 0.07338,-0.151342 0.201789,-0.24765 0.132997,-0.100894 0.311855,-0.146755 0.183445,-0.05045 0.394406,-0.05045 0.220133,0 0.371475,0.02752 0.155928,0.02752 0.298097,0.07338 v -0.04586 q 0,-0.252236 -0.155928,-0.385234 -0.151341,-0.132997 -0.440266,-0.132997 -0.206375,0 -0.366889,0.04127 -0.160514,0.04128 -0.325614,0.110067 l -0.151342,-0.444853 q 0.201789,-0.09172 0.41275,-0.146755 0.210961,-0.05503 0.509059,-0.05503 0.541161,0 0.802569,0.270581 0.261408,0.265994 0.261408,0.752122 v 1.435452 z"
         style="font-size:4.58611px;font-family:'Gotham Medium';-inkscape-font-specification:'Gotham Medium, Normal'"
         id="path100" />
      <path
         d="m 39.927696,10.664741 h 0.554919 v 0.376061 q 0.05962,-0.08714 0.128411,-0.160514 0.07338,-0.07796 0.1651,-0.137583 0.09631,-0.05962 0.206375,-0.09172 0.114653,-0.03669 0.256822,-0.03669 0.41275,0 0.637469,0.252236 0.22472,0.252236 0.22472,0.678744 v 1.540933 h -0.55492 v -1.375833 q 0,-0.284338 -0.137583,-0.43568 -0.132997,-0.155928 -0.380647,-0.155928 -0.243064,0 -0.394406,0.160514 -0.151341,0.155928 -0.151341,0.440267 v 1.36666 h -0.554919 z"
         style="font-size:4.58611px;font-family:'Gotham Medium';-inkscape-font-specification:'Gotham Medium, Normal'"
         id="path102" />
      <path
         d="m 44.266161,12.072677 q -0.105481,-0.04128 -0.252236,-0.06879 -0.14217,-0.02752 -0.302684,-0.02752 -0.261408,0 -0.408163,0.100894 -0.146756,0.100895 -0.146756,0.275167 v 0.0092 q 0,0.174272 0.132997,0.265994 0.137584,0.09172 0.334786,0.09172 0.137584,0 0.252236,-0.03669 0.119239,-0.03669 0.206375,-0.100895 0.08714,-0.06879 0.132998,-0.160514 0.05045,-0.09631 0.05045,-0.210961 z m -0.01376,1.01353 V 12.78811 q -0.123825,0.146756 -0.316441,0.24765 -0.192617,0.100895 -0.467783,0.100895 -0.174273,0 -0.3302,-0.05045 -0.155928,-0.04586 -0.275167,-0.137583 -0.114653,-0.09631 -0.18803,-0.233892 -0.06879,-0.142169 -0.06879,-0.325613 v -0.0092 q 0,-0.201788 0.07338,-0.348544 0.07338,-0.151342 0.201788,-0.24765 0.132998,-0.100894 0.311856,-0.146755 0.183444,-0.05045 0.394405,-0.05045 0.220134,0 0.371475,0.02752 0.155928,0.02752 0.298098,0.07338 v -0.04586 q 0,-0.252236 -0.155928,-0.385234 -0.151342,-0.132997 -0.440267,-0.132997 -0.206375,0 -0.366889,0.04127 -0.160513,0.04128 -0.325613,0.110067 L 42.81695,10.829841 q 0.201789,-0.09172 0.41275,-0.146755 0.210961,-0.05503 0.509058,-0.05503 0.541161,0 0.802569,0.270581 0.261409,0.265994 0.261409,0.752122 v 1.435452 z"
         style="font-size:4.58611px;font-family:'Gotham Medium';-inkscape-font-specification:'Gotham Medium, Normal'"
         id="path104" />
      <path
         d="m 45.495237,9.738347 h 0.554919 v 3.34786 h -0.554919 z"
         style="font-size:4.58611px;font-family:'Gotham Medium';-inkscape-font-specification:'Gotham Medium, Normal'"
         id="path106" />
      <path
         d="m 47.270058,13.833743 q -0.174272,0 -0.311855,-0.04128 -0.132997,-0.03669 -0.261408,-0.10548 l 0.18803,-0.41275 q 0.07796,0.04127 0.155928,0.0642 0.08255,0.02752 0.169686,0.02752 0.119239,0 0.197203,-0.05962 0.07796,-0.05962 0.146755,-0.220134 l -1.008944,-2.421466 h 0.591608 l 0.687917,1.797755 0.628297,-1.797755 h 0.57785 l -0.963083,2.490258 q -0.07338,0.188031 -0.151342,0.316442 -0.07796,0.128411 -0.174272,0.206375 -0.09631,0.08255 -0.210961,0.119238 -0.114653,0.03669 -0.261409,0.03669 z"
         style="font-size:4.58611px;font-family:'Gotham Medium';-inkscape-font-specification:'Gotham Medium, Normal'"
         id="path108" />
      <path
         d="m 50.338169,13.132068 q -0.261409,0 -0.531989,-0.09172 -0.265995,-0.09172 -0.4953,-0.27058 l 0.24765,-0.376061 q 0.197203,0.146755 0.398991,0.224719 0.206375,0.07338 0.394406,0.07338 0.178858,0 0.275167,-0.06879 0.100894,-0.07338 0.100894,-0.192616 v -0.0092 q 0,-0.06879 -0.04586,-0.119238 -0.04127,-0.05045 -0.119239,-0.08714 -0.07338,-0.03669 -0.174272,-0.06879 -0.09631,-0.0321 -0.201789,-0.06421 -0.132997,-0.03669 -0.270581,-0.08714 -0.132997,-0.05045 -0.243063,-0.128411 -0.105481,-0.08255 -0.174273,-0.201789 -0.06879,-0.119239 -0.06879,-0.293511 v -0.0092 q 0,-0.169686 0.06421,-0.307269 0.06879,-0.137584 0.183445,-0.233892 0.119239,-0.09631 0.275166,-0.146756 0.160514,-0.05045 0.339372,-0.05045 0.229306,0 0.463198,0.07338 0.233891,0.07338 0.426508,0.201789 l -0.220133,0.394405 q -0.174273,-0.10548 -0.353131,-0.1651 -0.178858,-0.06421 -0.3302,-0.06421 -0.160514,0 -0.252236,0.06879 -0.08714,0.06879 -0.08714,0.174273 v 0.0092 q 0,0.0642 0.04586,0.114653 0.04586,0.04586 0.119239,0.08714 0.07796,0.03669 0.174272,0.07338 0.100895,0.0321 0.206375,0.06421 0.132997,0.04128 0.265994,0.09631 0.132998,0.05503 0.238478,0.137584 0.110067,0.07796 0.178858,0.192616 0.06879,0.114653 0.06879,0.279753 v 0.0092 q 0,0.192617 -0.06879,0.334786 -0.06879,0.14217 -0.192616,0.238478 -0.119239,0.09172 -0.284339,0.142169 -0.1651,0.04586 -0.35313,0.04586 z"
         style="font-size:4.58611px;font-family:'Gotham Medium';-inkscape-font-specification:'Gotham Medium, Normal'"
         id="path110" />
    </g>
    <path
       style="fill:none;stroke:#505050;stroke-width:0.47625;stroke-linecap:butt;stroke-linejoin:miter;stroke-miterlimit:4;stroke-dasharray:none;stroke-opacity:1"
       d="m 53.335577,5.0280787 0.224109,-9.322e-4 0.603561,0.8142747 0.70503,-1.1471596 0.958805,5.6244884 1.278202,-2.9077554 0.85207,0.6676907 0.780145,-4.3745187 0.650647,0.5291666 1.083227,-4.11533893"
       id="path872"
       sodipodi:nodetypes="cccccccccc" />
    <g
       aria-label="t"
       id="text876"
       style="font-style:normal;font-variant:normal;font-weight:normal;font-stretch:normal;font-size:4.58611px;line-height:1.25;font-family:'Gotham Medium';-inkscape-font-specification:'Gotham Medium, Normal';font-variant-ligatures:normal;font-variant-caps:normal;font-variant-numeric:normal;font-variant-east-asian:normal;letter-spacing:0px;word-spacing:0px;fill:#ca2334;fill-opacity:1;stroke:none;stroke-width:0.264583">
      <path
         d="m 52.551355,13.094087 c -0.08561,-0.02446 -0.160514,-0.06421 -0.224719,-0.119239 -0.06115,-0.05503 -0.108537,-0.126882 -0.14217,-0.215547 -0.03363,-0.09172 -0.05045,-0.204846 -0.05045,-0.339372 l 9.9e-5,-7.1556908 H 51.826849 V 4.7872827 h 0.307269 l -9.9e-5,-2.7816164 h 0.55492 l 9.9e-5,2.7816164 h 0.651227 v 0.4769555 h -0.651227 l -9.9e-5,7.0685558 c -10e-7,0.107009 0.02599,0.184973 0.07796,0.233892 0.05197,0.04586 0.125351,0.06879 0.220134,0.06879 0.119239,0 8.015955,-0.0011 8.147632,-0.0014 l 0.005,0.486977 c -0.238766,4.09e-4 -7.162052,-8.8e-4 -7.722555,-6.34e-4 -0.483647,2.12e-4 -0.667316,-0.006 -0.865798,-0.02634 z"
         style="font-style:normal;font-variant:normal;font-weight:normal;font-stretch:normal;font-size:4.58611px;font-family:'Gotham Medium';-inkscape-font-specification:'Gotham Medium, Normal';font-variant-ligatures:normal;font-variant-caps:normal;font-variant-numeric:normal;font-variant-east-asian:normal;fill:#ca2334;fill-opacity:1;stroke-width:0.264583"
         id="path878"
         sodipodi:nodetypes="cccsccccccccccscsccscc" />
    </g>
  </g>
</svg>
