<?xml version="1.0" encoding="UTF-8"?>
<!-- Creator: CorelDRAW X7 -->
<svg width="5.7075in" height="4.9281in" clip-rule="evenodd" fill-rule="evenodd" image-rendering="optimizeQuality" shape-rendering="geometricPrecision" text-rendering="geometricPrecision" version="1.1" viewBox="0 0 3818 3296.6" xml:space="preserve" xmlns="http://www.w3.org/2000/svg">
 <defs>
  <style type="text/css">
   <![CDATA[
    .fil3 {fill:#C60427}
    .fil0 {fill:white}
    .fil2 {fill:#7A000A;fill-rule:nonzero}
    .fil1 {fill:#C60427;fill-rule:nonzero}
    .fil4 {fill:white;fill-rule:nonzero}
   ]]>
  </style>
 </defs>
 <g transform="translate(-870 -1130.4)">
  
  
  
   
    <path class="fil1" d="m1016 4337c-45 0-80-12-105-34s-39-55-41-97h74c3 23 11 39 22 49 12 9 30 14 53 14 45 0 67-18 67-55 0-16-4-29-13-38-9-8-23-14-42-17l-40-7c-75-13-112-51-112-116 0-39 12-69 38-92 25-22 59-33 102-33 41 0 73 10 97 32s38 52 41 92h-76c-1-20-7-35-18-44-10-9-26-14-46-14s-36 5-46 14c-11 10-16 23-16 39 0 15 5 26 14 34 9 9 24 15 44 19l44 7c71 13 107 52 107 117 0 42-13 74-40 96s-63 34-108 34zm310-136-34 39v93h-74v-416h74v233l102-131h89l-108 125 115 189h-90zm250-3v9c0 23 5 40 16 50 10 10 25 15 44 15 15 0 27-3 35-9 9-7 13-15 14-27l1-1h71v3c0 29-11 53-33 71-22 19-52 28-91 28-40 0-72-12-96-35-23-23-35-59-35-107v-38c0-47 11-83 34-106 23-24 55-35 95-35 39 0 71 11 94 35s35 59 35 106v41zm55-118c-18 0-31 5-41 15-9 10-14 27-14 50v2h109v-8c0-40-18-59-54-59zm276-8v166c0 21 11 32 31 32h24v63h-36c-29 0-51-8-68-24-17-17-25-39-25-67v-170h-43v-53h43v-61l74-26v87h61v53zm225 265c-39 0-70-11-93-32-23-22-34-55-34-100v-59c0-44 11-77 34-98 23-22 54-32 93-32s69 9 91 29 33 47 33 82v6h-72v-3c0-15-4-27-13-35-9-9-22-13-37-13-37 0-55 22-55 66v56c0 24 5 41 14 51 10 10 23 15 41 15 15 0 28-4 37-12s13-19 13-34v-3h72v4c0 35-11 62-33 82s-52 30-91 30zm183-420h75v130c9-11 20-18 33-24 12-5 25-7 39-7 33 0 58 10 75 29 18 20 27 48 27 83v205h-75v-196c0-18-4-31-13-41-9-9-21-14-36-14-14 0-26 5-36 14-9 10-14 24-14 41v196h-75zm687 0v416h-79v-247l-79 167h-53l-80-169v249h-79v-416h79l107 229 105-229zm182 99c40 0 71 9 92 28 21 18 32 46 32 83v206h-73v-27c-10 11-21 18-32 23s-25 8-42 8c-32 0-57-9-75-26-17-18-26-42-26-72 0-28 9-51 28-67s45-24 79-24h67v-25c0-33-17-50-50-50-15 0-26 3-34 10s-12 17-12 29v1h-70v-2c0-29 11-53 32-70s49-25 84-25zm-6 260c20 0 34-4 43-13 8-9 13-23 13-42v-22h-55c-31 0-47 13-47 38 0 26 16 39 46 39zm195-257h73v32c18-24 42-35 72-35 31 0 57 10 76 32 20 21 30 53 30 97v62c0 43-10 76-30 97-19 22-44 33-74 33-31 0-55-11-72-32v122h-75zm128 251c32 0 48-22 48-66v-56c0-24-4-40-13-51-9-10-22-15-37-15-16 0-29 6-38 17s-14 27-14 49v56c0 22 5 38 14 49 10 12 23 17 40 17z"/>
    <path class="fil2" d="m3947 3985h-106v348h-80v-348h-106v-68h292zm117 352c-39 0-70-11-93-32-23-22-34-55-34-100v-59c0-44 11-77 34-98 23-22 54-32 93-32s70 10 93 32c22 21 34 54 34 98v59c0 45-12 78-34 100-23 21-54 32-93 32zm0-67c35 0 52-22 52-66v-56c0-44-17-66-52-66s-53 22-53 66v56c0 44 18 66 53 66zm308 67c-39 0-70-11-93-32-23-22-34-55-34-100v-59c0-44 11-77 34-98 23-22 54-32 93-32s70 10 92 32c23 21 34 54 34 98v59c0 45-11 78-34 100-22 21-53 32-92 32zm0-67c35 0 52-22 52-66v-56c0-44-17-66-52-66s-53 22-53 66v56c0 44 18 66 53 66zm281 63c-30 0-53-8-70-25-17-16-25-40-25-70v-321h75v316c0 13 2 22 7 27 4 6 12 8 22 8h26v65z"/>
   
   
    <path class="fil2" d="m2322 3037c-28-30-59-61-89-90-150-150-271-270-271-523 0-105 20-210 60-310 37-91 90-177 161-253l10-11 10-9c84-85 178-158 280-208 90-45 187-71 287-71 103 0 209 28 310 75 107 50 208 121 290 204 100 100 176 190 225 280 51 93 74 184 68 283-5 92-35 188-82 284-52 107-125 214-206 313l-482 595-1 2c-46 50-94 77-146 77-51 0-102-25-152-78h-1l-480-529-1-2c-91-90-159-195-205-307-48-116-72-240-72-363 0-121 23-242 69-356 42-106 104-205 186-292v-1l22-22c97-96 205-180 322-238 104-52 215-82 330-82 118 0 240 32 355 86 123 57 239 140 334 234l34 35c214 213 348 346 322 721l-1 8-59 190-3 6-140 261-3 5-356 458-54-42 355-456 137-255 57-183c22-342-103-466-303-665-23-23-23-23-34-35-90-89-199-167-314-221-107-50-219-79-327-79-105 0-205 27-301 74-109 55-211 134-303 226l-11 11v1c-81 83-141 178-182 280-43 106-64 218-64 331 0 115 22 230 67 338 38 94 94 182 167 261l1-1 23 25 483 532h-1c37 38 71 57 103 56 31 0 63-19 96-55l481-593c78-95 147-198 197-300 43-89 71-177 76-258 5-87-15-166-60-247-46-83-118-169-214-265-77-78-171-145-271-191-91-43-188-69-281-69-89 0-176 24-258 65-94 46-182 115-261 195l-10 9c-69 72-121 154-156 242-37 90-55 187-55 284 0 225 112 336 251 475 28 28 58 57 90 92z"/>
    <path class="fil1" d="m2870 1727c-12-8-16-24-8-36 8-11 23-15 35-7l512 329c12 8 16 24 8 36-7 11-23 15-35 7zm602 479c11 8 14 24 7 36-8 11-24 14-36 7l-748-506c-12-7-15-23-7-35s24-15 35-7zm26 232c11 8 14 24 6 35-9 12-24 15-36 6l-76-54c1 6 0 12-4 18-8 11-24 15-35 7l-916-599c-12-8-15-24-7-36 7-11 23-15 35-7l765 501-725-519c-11-8-14-24-6-35 9-12 24-14 36-6zm-14 97c12 6 17 22 10 34-6 12-22 17-34 10l-1170-633c-12-7-17-22-10-35 6-12 22-16 34-10zm-54 193c11 7 15 23 7 35-7 12-23 15-35 8l-1150-732c-12-7-15-23-8-35 8-12 23-15 35-8zm-1226-501c-13-6-18-22-11-34 6-13 22-17 34-11l1118 587c13 6 17 22 11 34s-22 17-34 11zm1116 666c12 7 17 23 10 35s-23 16-35 9l-1180-683c-12-7-16-23-9-35s22-16 34-9zm-1183-505c-3-8-2-16 2-23 7-12 23-16 35-9l1042 625c12 7 16 23 8 35-7 12-22 16-34 9l-951-570 937 596c11 7 15 23 7 35-7 11-23 15-35 7l-1066-680c-12-8-16-24-8-36 7-11 23-15 35-7zm-49 260c-13-6-18-21-12-33 6-13 21-18 34-12l914 444c13 6 18 21 12 34-6 12-21 18-34 11zm998 513c12 7 17 22 11 34-6 13-21 18-34 12l-27-13c-5 13-20 19-33 14l-451-174c-13-6-20-21-14-34 5-13 20-19 33-14l262 107-664-329c-12-6-17-22-11-34 6-13 21-18 34-12zm-730-18c-14-4-21-19-17-32s19-21 32-16l565 183c13 4 21 19 16 32-4 13-17 20-29 17l-496-98c-14-3-23-16-20-30s17-22 31-19l45 4z"/>
    <path class="fil3" d="m3864 1665c55-131-57-315-178-401l-748 1038c26 136 86 233 143 326l7 11zm-237-435c-126-57-278-35-378 14l-753 999c35 32 81 49 138 53 69 6 152-6 248-31z"/>
    <path class="fil2" d="m3240 1144c11-15 32-18 47-7s18 33 7 47l-798 1059c35 32 81 49 138 53 69 6 152-6 248-31l774-1075c10-15 32-19 47-8s18 32 7 47l-772 1073c26 136 86 233 143 326l7 11 807-1014c12-15 33-17 48-5 15 11 17 33 5 47l-837 1051c-3 4-6 7-10 9-2 1-4 2-5 3l-566 242-170 73c-5 2-11 3-18 3-18-3-31-20-29-39l23-169 82-597c0-6 2-13 6-18z"/>
    <path class="fil4" d="m2476 2314-68 504 127 81 500-217-12-18c-57-94-117-192-147-328-94 23-177 34-248 28-59-5-109-21-152-50z"/>
   
  
 </g>
</svg>
