<?xml version="1.0" encoding="UTF-8" standalone="no"?>
<svg
   width="183.47226"
   height="100.00272"
   version="1.1"
   viewBox="-0.5 -0.5 183.47226 100.00271"
   xml:space="preserve"
   id="svg184"
   sodipodi:docname="vector-marking-icon.svg"
   inkscape:version="1.1 (c68e22c387, 2021-05-23)"
   xmlns:inkscape="http://www.inkscape.org/namespaces/inkscape"
   xmlns:sodipodi="http://sodipodi.sourceforge.net/DTD/sodipodi-0.dtd"
   xmlns="http://www.w3.org/2000/svg"
   xmlns:svg="http://www.w3.org/2000/svg"><sodipodi:namedview
     id="namedview186"
     pagecolor="#ffffff"
     bordercolor="#666666"
     borderopacity="1.0"
     inkscape:showpageshadow="2"
     inkscape:pageopacity="0.0"
     inkscape:pagecheckerboard="0"
     inkscape:deskcolor="#d1d1d1"
     showgrid="false"
     inkscape:zoom="1.5852166"
     inkscape:cx="-15.455302"
     inkscape:cy="79.168994"
     inkscape:window-width="2560"
     inkscape:window-height="1377"
     inkscape:window-x="-8"
     inkscape:window-y="-8"
     inkscape:window-maximized="1"
     inkscape:current-layer="svg184"
     showguides="true"
     inkscape:pageshadow="0" /><defs
     id="defs166"><style
       type="text/css"
       id="style162">@import url(https://fonts.googleapis.com/css?family=Architects+Daughter);
</style><style
       type="text/css"
       id="style164">
   <![CDATA[
    .fil3 {fill:#C60427}
    .fil0 {fill:white}
    .fil2 {fill:#7A000A;fill-rule:nonzero}
    .fil1 {fill:#C60427;fill-rule:nonzero}
    .fil4 {fill:white;fill-rule:nonzero}
   ]]>
  </style></defs><g
     id="g26415"
     transform="translate(0,-112.25922)"><text
       xml:space="preserve"
       style="font-style:normal;font-variant:normal;font-weight:bold;font-stretch:normal;font-size:48px;line-height:1.25;font-family:D-DIN;-inkscape-font-specification:'D-DIN Bold';letter-spacing:0px;word-spacing:0px;fill:#4d4d4d"
       x="-15.086445"
       y="176.62823"
       id="text26403"
       transform="translate(113.01843,-1.045e-5)"><tspan
         sodipodi:role="line"
         id="tspan26401"
         x="-15.086445"
         y="176.62823">→</tspan></text><g
       transform="matrix(1.1151,0,0,1.1151,-0.58665814,111.55906)"
       stroke-width="0.8968"
       id="g26213"
       style="display:inline"><path
         d="m 82.03,46.55 -20.4,-5.1 5.44,-36.26 18.61,8.46 z M 65.29,80.08 61.67,45.66 81.92,50.73 85.54,85.14 Z M 10.08,45.3 32.66,48.78 29,85.35 4.58,80.12 Z M 4.6,5.04 30.89,11.96 32.7,44.66 10.17,41.19 Z M 57.54,41.22 36.79,44.67 34.97,11.94 62.98,4.93 Z m -20.79,7.59 20.79,-3.46 3.65,34.7 -28.09,5.27 z M 89.9,12.63 C 90,11.76 89.52,10.92 88.72,10.55 L 66.3,0.36 C 65.88,0.17 65.4,0.13 64.96,0.24 L 32.85,8.27 2.64,0.3 C 1.98,0.13 1.26,0.3 0.75,0.76 0.24,1.22 0,1.91 0.1,2.58 l 6.22,40.4 -6.07,38.41 c -0.16,1.07 0.53,2.08 1.59,2.31 l 28.53,6.12 c 0.27,0.05 0.54,0.05 0.81,0 l 32.17,-6.03 24.03,6.01 c 0.16,0.04 0.33,0.06 0.49,0.06 0.49,0 0.96,-0.17 1.34,-0.5 0.5,-0.43 0.76,-1.09 0.69,-1.75 L 85.85,49.1 Z"
         fill="#bf0816"
         pointer-events="all"
         stroke-width="0.80426"
         id="path26211" /></g><path
       class="fil1"
       d="m -61.157025,139.38338 c -0.294899,-0.21447 -0.37532,-0.69703 -0.160853,-0.99191 0.160853,-0.37532 0.616595,-0.45575 1.018722,-0.24128 l 14.744967,9.46341 c 0.2949,0.21447 0.455742,0.69703 0.214468,0.99191 -0.214468,0.37533 -0.67022,0.45575 -0.991915,0.24128 z m 17.372143,13.83282 c 0.375321,0.24127 0.455742,0.69702 0.214467,0.99191 -0.214467,0.32171 -0.697026,0.37532 -0.99187,0.16085 l -21.58053,-14.52975 c -0.37532,-0.21446 -0.455741,-0.67022 -0.241274,-0.99191 0.241274,-0.37532 0.697026,-0.45574 1.018722,-0.24128 z m 0.750641,6.67532 c 0.321706,0.24127 0.402127,0.69703 0.160853,0.99191 -0.241274,0.32171 -0.697027,0.40213 -0.991915,0.16086 l -2.22507,-1.52814 c 0.08042,0.16086 0,0.2949 -0.08042,0.45575 -0.241274,0.37532 -0.697027,0.45574 -0.991915,0.24127 l -26.433447,-17.29186 c -0.321706,-0.24127 -0.37532,-0.69702 -0.241274,-0.99191 0.241274,-0.32171 0.697027,-0.48256 1.072347,-0.24127 L -50.782,156.13759 -71.612068,141.23205 c -0.375321,-0.32171 -0.455742,-0.77745 -0.134047,-1.07235 0.214468,-0.3217 0.67022,-0.40212 0.991915,-0.16085 z m -0.37532,2.76132 c 0.294899,0.16085 0.455741,0.6166 0.294899,1.01872 -0.214467,0.2949 -0.67022,0.45575 -0.991915,0.2949 l -33.725084,-18.28318 c -0.375321,-0.21446 -0.455742,-0.61659 -0.2949,-0.99191 0.214468,-0.37532 0.616595,-0.45574 0.991915,-0.32171 z m -1.608421,5.54941 c 0.375321,0.21447 0.455742,0.67022 0.214468,0.99191 -0.134047,0.37532 -0.589788,0.45574 -0.991915,0.24128 l -33.108434,-21.07205 c -0.375321,-0.21446 -0.455742,-0.67022 -0.214468,-0.99191 0.214468,-0.37532 0.67022,-0.45574 0.991915,-0.21447 z m -35.252771,-14.44947 c -0.402127,-0.16085 -0.536174,-0.61659 -0.321706,-0.91149 0.160853,-0.40207 0.61655,-0.53612 0.938245,-0.32165 l 32.250922,16.91607 c 0.294899,0.13404 0.455741,0.58978 0.294899,0.91149 -0.214467,0.37526 -0.589787,0.53612 -0.991915,0.29484 z m 32.089233,19.19533 c 0.402127,0.24128 0.536173,0.69703 0.321706,1.01873 -0.241274,0.37532 -0.697027,0.45574 -0.991915,0.2949 l -34.047348,-19.73058 c -0.294899,-0.16086 -0.455742,-0.6166 -0.214467,-1.01873 0.214467,-0.2949 0.616594,-0.45574 0.991915,-0.21446 z m -34.019471,-14.50299 c -0.08042,-0.24127 -0.08042,-0.45574 0,-0.69702 0.241274,-0.2949 0.697027,-0.45574 0.991915,-0.24128 l 30.051945,17.9888 c 0.37532,0.21446 0.455741,0.69702 0.214467,0.99191 -0.160853,0.37532 -0.616595,0.45574 -0.991915,0.32171 l -27.344482,-16.45999 26.969809,17.13016 c 0.37532,0.24128 0.455741,0.69703 0.214467,1.01874 -0.214467,0.37532 -0.697027,0.45574 -0.991915,0.21446 l -30.72212,-19.57 c -0.402128,-0.24128 -0.455742,-0.69703 -0.241275,-1.01872 0.241275,-0.37532 0.697027,-0.45575 0.991915,-0.21447 z m -1.447623,7.45277 c -0.402127,-0.16085 -0.56298,-0.61659 -0.321706,-0.9383 0.160853,-0.37532 0.616594,-0.53617 0.911494,-0.37532 l 26.353158,12.84149 c 0.402127,0.13405 0.536173,0.58979 0.402127,0.99192 -0.160853,0.2949 -0.616594,0.45574 -1.018722,0.2949 z m 28.711595,14.82526 c 0.402127,0.13404 0.536173,0.61659 0.402127,0.99191 -0.241274,0.2949 -0.616594,0.45575 -1.018733,0.2949 l -0.750641,-0.37532 c -0.160853,0.37532 -0.616594,0.53618 -1.018721,0.37532 l -12.975304,-4.98639 c -0.37532,-0.16085 -0.536174,-0.61659 -0.37532,-0.99191 0.160853,-0.32171 0.536173,-0.53618 0.911494,-0.37532 l 7.613568,3.05615 -19.140692,-9.43653 c -0.37532,-0.24128 -0.536173,-0.6166 -0.294899,-0.99192 0.160853,-0.40213 0.616594,-0.56298 0.911494,-0.32171 z m -20.96388,-0.53617 c -0.37532,-0.16086 -0.616595,-0.53618 -0.536174,-0.93831 0.160854,-0.37532 0.536174,-0.61659 0.911494,-0.45574 l 16.299417,5.3081 c 0.37532,0.0804 0.616595,0.53618 0.455741,0.9115 -0.08042,0.3217 -0.455741,0.53617 -0.85788,0.45574 l -14.288891,-2.84172 c -0.37532,-0.0536 -0.589787,-0.45574 -0.536173,-0.83107 0.08042,-0.37532 0.482559,-0.69702 0.857879,-0.53617 l 1.313588,0.0804 z"
       image-rendering="optimizeQuality"
       id="path26215"
       style="display:inline;fill:#0000ff;fill-rule:nonzero;stroke-width:1.1151"
       transform="translate(113.01843,-1.045e-5)" /></g><path
     d="m 146.25379,65.335465 v -22 h 7 v 22 z m 12.5,0 v -32 h 7 v 32 z m 12.5,0 v -14 h 7 v 14 z"
     id="path2"
     style="fill:#0000ff;stroke-width:0.05" /><path
     style="fill:#0000ff;stroke-width:0.0777574"
     d="m 146.30168,54.338995 v -10.9638 h 3.46021 3.46021 v 10.9638 10.9638 h -3.46021 -3.46021 z"
     id="path84" /></svg>
