<?xml version="1.0" encoding="UTF-8" standalone="no"?>
<!-- Creator: CorelDRAW X7 -->

<svg
   xml:space="preserve"
   width="630"
   height="150"
   version="1.1"
   style="clip-rule:evenodd;fill-rule:evenodd;image-rendering:optimizeQuality;shape-rendering:geometricPrecision;text-rendering:geometricPrecision"
   viewBox="0 0 630 150"
   id="svg45"
   sodipodi:docname="SketchMap_Logo_Header.svg"
   inkscape:version="1.2.1 (0f2f062aeb, 2022-09-21, custom)"
   xmlns:inkscape="http://www.inkscape.org/namespaces/inkscape"
   xmlns:sodipodi="http://sodipodi.sourceforge.net/DTD/sodipodi-0.dtd"
   xmlns="http://www.w3.org/2000/svg"
   xmlns:svg="http://www.w3.org/2000/svg"><sodipodi:namedview
   id="namedview47"
   pagecolor="#ffffff"
   bordercolor="#666666"
   borderopacity="1.0"
   inkscape:showpageshadow="2"
   inkscape:pageopacity="0.0"
   inkscape:pagecheckerboard="0"
   inkscape:deskcolor="#d1d1d1"
   inkscape:document-units="px"
   showgrid="false"
   inkscape:zoom="0.73499542"
   inkscape:cx="240.81783"
   inkscape:cy="110.88505"
   inkscape:window-width="1846"
   inkscape:window-height="1016"
   inkscape:window-x="74"
   inkscape:window-y="1107"
   inkscape:window-maximized="1"
   inkscape:current-layer="Layer_x0020_1" />
 <defs
   id="defs20">
  <style
   type="text/css"
   id="style18">
   <![CDATA[
    .fil3 {fill:#C60427}
    .fil0 {fill:white}
    .fil2 {fill:#7A000A;fill-rule:nonzero}
    .fil1 {fill:#C60427;fill-rule:nonzero}
    .fil4 {fill:white;fill-rule:nonzero}
   ]]>
  </style>
 
   
   
  </defs>
 <g
   id="Layer_x0020_1"
   inkscape:label="Layer 1"
   inkscape:groupmode="layer"
   transform="translate(-1928.0629,-1871.9568)">
  <metadata
   id="CorelCorpID_0Corel-Layer" />
  <g
   id="g41"
   transform="matrix(0.05139985,0,0,0.05139985,1833.8687,1780.6538)">
    <path
   class="fil1"
   d="m 4840,3883 c -111,0 -198,-28 -260,-83 -62,-56 -97,-136 -104,-242 h 187 c 7,57 25,98 55,121 29,24 73,36 131,36 111,0 167,-46 167,-137 0,-41 -11,-73 -33,-94 -22,-22 -57,-37 -105,-45 l -98,-16 c -188,-31 -281,-127 -281,-289 0,-96 32,-172 95,-228 64,-57 148,-85 254,-85 102,0 183,27 242,82 60,54 94,130 102,228 h -189 c -3,-50 -18,-87 -44,-110 -26,-23 -64,-34 -114,-34 -52,0 -90,12 -116,35 -26,24 -39,56 -39,97 0,36 11,65 34,86 23,21 59,36 109,45 l 109,20 c 179,32 268,129 268,291 0,105 -33,184 -100,239 -67,56 -157,83 -270,83 z m 773,-337 -83,96 v 232 H 5344 V 2836 h 186 v 581 l 253,-325 h 221 l -268,311 288,471 h -226 z m 624,-7 v 21 c 0,58 13,100 39,125 26,25 63,37 112,37 37,0 66,-8 87,-23 21,-16 32,-37 34,-66 l 2,-4 h 177 v 7 c 0,75 -27,134 -82,179 -56,46 -131,68 -226,68 -100,0 -180,-29 -239,-86 -59,-58 -89,-147 -89,-267 v -95 c 0,-117 29,-205 86,-264 57,-59 136,-88 236,-88 98,0 176,30 234,89 57,59 86,147 86,263 v 104 z m 137,-297 c -44,0 -78,13 -102,38 -23,25 -35,67 -35,126 v 5 h 271 v -20 c 0,-99 -45,-149 -134,-149 z m 689,-19 v 413 c 0,54 25,80 76,80 h 59 v 158 h -89 c -71,0 -127,-20 -169,-61 -41,-40 -62,-95 -62,-164 v -426 h -109 v -131 h 109 v -153 l 185,-65 v 218 h 150 v 131 z m 561,660 c -99,0 -176,-26 -233,-80 -56,-53 -85,-135 -85,-248 v -146 c 0,-111 29,-193 85,-246 57,-53 134,-80 233,-80 96,0 171,25 225,74 54,49 81,117 81,204 v 15 h -177 v -9 c 0,-37 -11,-66 -34,-87 -22,-21 -53,-32 -92,-32 -91,0 -136,55 -136,164 v 142 c 0,59 12,101 36,126 23,25 57,38 100,38 39,0 70,-10 92,-30 23,-20 34,-49 34,-85 v -9 h 177 v 11 c 0,86 -27,154 -81,204 -54,49 -129,74 -225,74 z m 455,-1047 h 187 v 325 c 23,-26 50,-45 81,-58 31,-13 64,-20 99,-20 80,0 143,25 187,75 44,49 66,118 66,206 v 510 h -187 v -487 c 0,-45 -11,-80 -33,-103 -22,-24 -51,-36 -88,-36 -36,0 -66,13 -90,37 -23,24 -35,58 -35,102 v 487 h -187 z m 1713,0 v 1038 h -197 v -615 l -197,415 h -132 l -200,-419 v 619 H 8869 V 2836 h 197 l 266,573 263,-573 z m 453,247 c 99,0 175,23 228,70 54,47 80,116 80,207 v 514 h -180 v -68 c -26,27 -53,47 -81,59 -27,12 -62,18 -104,18 -81,0 -143,-21 -187,-65 -44,-43 -66,-102 -66,-179 0,-70 24,-125 71,-166 47,-40 112,-61 197,-61 h 165 v -61 c 0,-83 -41,-125 -125,-125 -35,0 -63,9 -83,26 -21,18 -31,41 -31,70 v 5 h -173 v -6 c 0,-74 26,-131 78,-174 52,-43 123,-64 211,-64 z m -15,650 c 49,0 84,-12 106,-34 21,-23 32,-57 32,-103 v -56 h -135 c -78,0 -118,32 -118,95 0,65 39,98 115,98 z m 486,-641 h 181 v 80 c 47,-59 106,-89 179,-89 79,0 142,27 191,80 50,53 74,134 74,242 v 155 c 0,108 -24,189 -74,243 -49,53 -110,80 -185,80 -77,0 -137,-26 -180,-80 v 306 h -186 z m 318,626 c 81,0 121,-55 121,-164 v -142 c 0,-58 -12,-100 -34,-125 -23,-26 -53,-39 -91,-39 -40,0 -72,15 -95,43 -23,28 -35,68 -35,121 v 142 c 0,53 12,94 36,122 23,28 56,42 98,42 z"
   id="path25" />
    <path
   class="fil2"
   d="m 12144,3008 h -264 v 866 h -199 v -866 h -265 v -172 h 728 z m 293,875 c -98,0 -175,-26 -232,-80 -57,-53 -85,-135 -85,-248 v -146 c 0,-111 28,-193 85,-246 57,-53 134,-80 232,-80 98,0 174,27 231,80 56,53 84,135 84,246 v 146 c 0,113 -28,195 -84,248 -57,54 -133,80 -231,80 z m 0,-165 c 87,0 130,-55 130,-164 v -142 c 0,-109 -43,-164 -130,-164 -88,0 -132,55 -132,164 v 142 c 0,109 44,164 132,164 z m 767,165 c -98,0 -175,-26 -232,-80 -57,-53 -85,-135 -85,-248 v -146 c 0,-111 28,-193 85,-246 57,-53 134,-80 232,-80 98,0 174,27 230,80 57,53 85,135 85,246 v 146 c 0,113 -28,195 -85,248 -56,54 -132,80 -230,80 z m 0,-165 c 87,0 130,-55 130,-164 v -142 c 0,-109 -43,-164 -130,-164 -88,0 -132,55 -132,164 v 142 c 0,109 44,164 132,164 z m 701,156 c -75,0 -133,-20 -175,-62 -42,-41 -62,-99 -62,-176 v -800 h 186 v 788 c 0,33 6,55 17,69 12,13 31,20 57,20 h 63 v 161 z"
   id="path27" />
    <g
   id="g39">
     <path
   class="fil2"
   d="m 2456,3917 c -29,-31 -63,-66 -95,-97 -163,-161 -292,-290 -292,-562 0,-112 20,-226 63,-332 40,-98 97,-189 175,-273 v 0 l 11,-11 9,-12 v 0 c 91,-88 192,-166 301,-220 97,-49 203,-78 309,-78 112,0 226,29 332,81 115,54 224,132 313,217 v 0 c 109,109 189,207 243,304 55,98 78,198 72,304 -6,97 -37,201 -89,304 -54,117 -135,232 -220,338 v 0 l -519,639 v 0 c -49,54 -103,83 -158,83 -54,3 -109,-26 -163,-83 v 0 l -516,-568 -3,-2 v 0 c -97,-98 -169,-210 -220,-330 -52,-126 -78,-258 -78,-390 0,-131 26,-260 75,-384 46,-111 112,-220 200,-312 v -3 l 12,-8 11,-15 v 0 c 103,-103 221,-195 347,-255 112,-57 229,-89 355,-89 126,0 258,35 381,92 132,63 258,152 359,252 l 37,38 c 229,229 372,372 347,776 l -3,9 -63,203 -3,6 -149,281 -6,5 -381,493 -57,-46 381,-490 146,-275 63,-195 c 23,-369 -112,-501 -327,-716 -25,-23 -25,-26 -37,-37 -97,-95 -212,-181 -338,-238 -115,-52 -235,-86 -350,-86 -111,0 -220,32 -323,83 -118,57 -227,143 -327,241 v 0 l -12,11 v 0 c -86,92 -151,195 -194,304 -46,112 -69,232 -69,355 0,124 23,247 71,361 41,104 101,198 181,281 v 0 l 26,29 518,570 v 0 c 38,40 75,60 109,60 35,0 69,-20 103,-60 l 516,-636 v 0 c 86,-103 161,-212 212,-324 46,-94 78,-189 83,-278 6,-91 -17,-177 -66,-263 -48,-89 -126,-181 -229,-287 v 0 c -83,-83 -183,-155 -289,-203 -100,-46 -204,-75 -304,-75 -94,0 -189,26 -278,69 -100,51 -195,126 -281,209 v 0 l -8,12 v 0 c -75,77 -132,166 -169,260 -40,98 -61,201 -61,304 0,244 121,361 273,510 28,32 60,63 97,100 z"
   id="path29" />
     <path
   class="fil1"
   d="m 3043,2510 c -11,-8 -14,-26 -6,-37 6,-14 23,-17 38,-9 l 550,353 c 11,8 17,26 8,37 -8,14 -25,17 -37,9 z m 648,516 c 14,9 17,26 8,37 -8,12 -26,14 -37,6 l -805,-542 c -14,-8 -17,-25 -9,-37 9,-14 26,-17 38,-9 z m 28,249 c 12,9 15,26 6,37 -9,12 -26,15 -37,6 l -83,-57 c 3,6 0,11 -3,17 -9,14 -26,17 -37,9 l -986,-645 c -12,-9 -14,-26 -9,-37 9,-12 26,-18 40,-9 l 820,539 -777,-556 c -14,-12 -17,-29 -5,-40 8,-12 25,-15 37,-6 z m -14,103 c 11,6 17,23 11,38 -8,11 -25,17 -37,11 L 2421,2745 c -14,-8 -17,-23 -11,-37 8,-14 23,-17 37,-12 z m -60,207 c 14,8 17,25 8,37 -5,14 -22,17 -37,9 L 2381,2845 c -14,-8 -17,-25 -8,-37 8,-14 25,-17 37,-8 z M 2330,3046 c -15,-6 -20,-23 -12,-34 6,-15 23,-20 35,-12 l 1203,631 c 11,5 17,22 11,34 -8,14 -22,20 -37,11 z m 1197,716 c 15,9 20,26 12,38 -9,14 -26,17 -37,11 L 2232,3075 c -11,-6 -17,-23 -8,-38 8,-11 23,-17 37,-8 z M 2258,3221 c -3,-9 -3,-17 0,-26 9,-11 26,-17 37,-9 l 1121,671 c 14,8 17,26 8,37 -6,14 -23,17 -37,12 l -1020,-614 1006,639 c 14,9 17,26 8,38 -8,14 -26,17 -37,8 L 2198,3247 c -15,-9 -17,-26 -9,-38 9,-14 26,-17 37,-8 z m -54,278 c -15,-6 -21,-23 -12,-35 6,-14 23,-20 34,-14 l 983,479 c 15,5 20,22 15,37 -6,11 -23,17 -38,11 z m 1071,553 c 15,5 20,23 15,37 -9,11 -23,17 -38,11 l -28,-14 v 0 c -6,14 -23,20 -38,14 l -484,-186 c -14,-6 -20,-23 -14,-37 6,-12 20,-20 34,-14 l 284,114 -714,-352 c -14,-9 -20,-23 -11,-37 6,-15 23,-21 34,-12 z m -782,-20 c -14,-6 -23,-20 -20,-35 6,-14 20,-23 34,-17 l 608,198 c 14,3 23,20 17,34 -3,12 -17,20 -32,17 v 0 l -533,-106 c -14,-2 -22,-17 -20,-31 3,-14 18,-26 32,-20 l 49,3 z"
   id="path31" />
     <path
   class="fil3"
   d="m 4112,2444 c 60,-143 -60,-341 -192,-432 l -802,1117 c 28,143 91,249 154,350 l 6,11 z m -255,-470 c -135,-60 -298,-37 -404,17 l -811,1072 c 37,35 89,55 149,57 74,9 163,-5 266,-31 z"
   id="path33" />
     <path
   class="fil2"
   d="m 3441,1883 c 12,-15 35,-20 52,-6 17,11 20,34 6,49 l -857,1137 c 37,35 89,55 149,57 74,9 163,-5 266,-31 l 831,-1158 c 12,-14 35,-20 52,-5 17,11 20,34 9,48 l -831,1155 c 28,143 91,249 154,350 l 6,11 868,-1089 c 12,-17 35,-20 52,-5 14,11 17,34 6,48 l -900,1132 c -3,3 -6,6 -12,9 0,0 -2,3 -5,3 l -608,260 -183,78 v 0 c -6,3 -12,3 -17,3 -20,-3 -35,-21 -32,-41 l 23,-183 89,-642 c 0,-6 3,-11 6,-17 z"
   id="path35" />
     <path
   class="fil4"
   d="m 2622,3141 -75,541 138,89 536,-235 -12,-20 c -63,-100 -126,-206 -157,-353 -101,26 -189,38 -267,32 -63,-6 -117,-23 -163,-54 z"
   id="path37" />
    </g>
   </g>
 </g>
</svg>
