<?xml version="1.0" encoding="UTF-8" standalone="no"?>
<!-- Creator: CorelDRAW X7 -->

<svg
   xml:space="preserve"
   width="130"
   height="150"
   version="1.1"
   style="clip-rule:evenodd;fill-rule:evenodd;image-rendering:optimizeQuality;shape-rendering:geometricPrecision;text-rendering:geometricPrecision"
   viewBox="0 0 130 150"
   id="svg45"
   sodipodi:docname="SketchMap_Logo_Icon_Header.svg"
   inkscape:version="1.2.1 (0f2f062aeb, 2022-09-21, custom)"
   xmlns:inkscape="http://www.inkscape.org/namespaces/inkscape"
   xmlns:sodipodi="http://sodipodi.sourceforge.net/DTD/sodipodi-0.dtd"
   xmlns="http://www.w3.org/2000/svg"
   xmlns:svg="http://www.w3.org/2000/svg"><sodipodi:namedview
   id="namedview47"
   pagecolor="#ffffff"
   bordercolor="#666666"
   borderopacity="1.0"
   inkscape:showpageshadow="2"
   inkscape:pageopacity="0.0"
   inkscape:pagecheckerboard="0"
   inkscape:deskcolor="#d1d1d1"
   inkscape:document-units="px"
   showgrid="false"
   inkscape:zoom="1.4054208"
   inkscape:cx="246.90115"
   inkscape:cy="147.99838"
   inkscape:window-width="1920"
   inkscape:window-height="1043"
   inkscape:window-x="0"
   inkscape:window-y="0"
   inkscape:window-maximized="1"
   inkscape:current-layer="Layer_x0020_1"
   showguides="true"><sodipodi:guide
     position="-117.48076,-112.074"
     orientation="0,-1"
     id="guide306"
     inkscape:locked="false" /></sodipodi:namedview>
 <defs
   id="defs20">
  <style
   type="text/css"
   id="style18">
   <![CDATA[
    .fil3 {fill:#C60427}
    .fil0 {fill:white}
    .fil2 {fill:#7A000A;fill-rule:nonzero}
    .fil1 {fill:#C60427;fill-rule:nonzero}
    .fil4 {fill:white;fill-rule:nonzero}
   ]]>
  </style>
 
   
   
  
    
    
    
   </defs>
 <g
   id="Layer_x0020_1"
   inkscape:label="Layer 1"
   inkscape:groupmode="layer"
   transform="translate(-1933.1218,-1876.7068)">
  <metadata
   id="CorelCorpID_0Corel-Layer" />
  <g
   id="g39"
   transform="matrix(0.05139985,0,0,0.05139985,1840.2812,1785.4038)">
     <path
   class="fil2"
   d="m 2456,3917 c -29,-31 -63,-66 -95,-97 -163,-161 -292,-290 -292,-562 0,-112 20,-226 63,-332 40,-98 97,-189 175,-273 v 0 l 11,-11 9,-12 v 0 c 91,-88 192,-166 301,-220 97,-49 203,-78 309,-78 112,0 226,29 332,81 115,54 224,132 313,217 v 0 c 109,109 189,207 243,304 55,98 78,198 72,304 -6,97 -37,201 -89,304 -54,117 -135,232 -220,338 v 0 l -519,639 v 0 c -49,54 -103,83 -158,83 -54,3 -109,-26 -163,-83 v 0 l -516,-568 -3,-2 v 0 c -97,-98 -169,-210 -220,-330 -52,-126 -78,-258 -78,-390 0,-131 26,-260 75,-384 46,-111 112,-220 200,-312 v -3 l 12,-8 11,-15 v 0 c 103,-103 221,-195 347,-255 112,-57 229,-89 355,-89 126,0 258,35 381,92 132,63 258,152 359,252 l 37,38 c 229,229 372,372 347,776 l -3,9 -63,203 -3,6 -149,281 -6,5 -381,493 -57,-46 381,-490 146,-275 63,-195 c 23,-369 -112,-501 -327,-716 -25,-23 -25,-26 -37,-37 -97,-95 -212,-181 -338,-238 -115,-52 -235,-86 -350,-86 -111,0 -220,32 -323,83 -118,57 -227,143 -327,241 v 0 l -12,11 v 0 c -86,92 -151,195 -194,304 -46,112 -69,232 -69,355 0,124 23,247 71,361 41,104 101,198 181,281 v 0 l 26,29 518,570 v 0 c 38,40 75,60 109,60 35,0 69,-20 103,-60 l 516,-636 v 0 c 86,-103 161,-212 212,-324 46,-94 78,-189 83,-278 6,-91 -17,-177 -66,-263 -48,-89 -126,-181 -229,-287 v 0 c -83,-83 -183,-155 -289,-203 -100,-46 -204,-75 -304,-75 -94,0 -189,26 -278,69 -100,51 -195,126 -281,209 v 0 l -8,12 v 0 c -75,77 -132,166 -169,260 -40,98 -61,201 -61,304 0,244 121,361 273,510 28,32 60,63 97,100 z"
   id="path29" />
     <path
   class="fil1"
   d="m 3043,2510 c -11,-8 -14,-26 -6,-37 6,-14 23,-17 38,-9 l 550,353 c 11,8 17,26 8,37 -8,14 -25,17 -37,9 z m 648,516 c 14,9 17,26 8,37 -8,12 -26,14 -37,6 l -805,-542 c -14,-8 -17,-25 -9,-37 9,-14 26,-17 38,-9 z m 28,249 c 12,9 15,26 6,37 -9,12 -26,15 -37,6 l -83,-57 c 3,6 0,11 -3,17 -9,14 -26,17 -37,9 l -986,-645 c -12,-9 -14,-26 -9,-37 9,-12 26,-18 40,-9 l 820,539 -777,-556 c -14,-12 -17,-29 -5,-40 8,-12 25,-15 37,-6 z m -14,103 c 11,6 17,23 11,38 -8,11 -25,17 -37,11 L 2421,2745 c -14,-8 -17,-23 -11,-37 8,-14 23,-17 37,-12 z m -60,207 c 14,8 17,25 8,37 -5,14 -22,17 -37,9 L 2381,2845 c -14,-8 -17,-25 -8,-37 8,-14 25,-17 37,-8 z M 2330,3046 c -15,-6 -20,-23 -12,-34 6,-15 23,-20 35,-12 l 1203,631 c 11,5 17,22 11,34 -8,14 -22,20 -37,11 z m 1197,716 c 15,9 20,26 12,38 -9,14 -26,17 -37,11 L 2232,3075 c -11,-6 -17,-23 -8,-38 8,-11 23,-17 37,-8 z M 2258,3221 c -3,-9 -3,-17 0,-26 9,-11 26,-17 37,-9 l 1121,671 c 14,8 17,26 8,37 -6,14 -23,17 -37,12 l -1020,-614 1006,639 c 14,9 17,26 8,38 -8,14 -26,17 -37,8 L 2198,3247 c -15,-9 -17,-26 -9,-38 9,-14 26,-17 37,-8 z m -54,278 c -15,-6 -21,-23 -12,-35 6,-14 23,-20 34,-14 l 983,479 c 15,5 20,22 15,37 -6,11 -23,17 -38,11 z m 1071,553 c 15,5 20,23 15,37 -9,11 -23,17 -38,11 l -28,-14 v 0 c -6,14 -23,20 -38,14 l -484,-186 c -14,-6 -20,-23 -14,-37 6,-12 20,-20 34,-14 l 284,114 -714,-352 c -14,-9 -20,-23 -11,-37 6,-15 23,-21 34,-12 z m -782,-20 c -14,-6 -23,-20 -20,-35 6,-14 20,-23 34,-17 l 608,198 c 14,3 23,20 17,34 -3,12 -17,20 -32,17 v 0 l -533,-106 c -14,-2 -22,-17 -20,-31 3,-14 18,-26 32,-20 l 49,3 z"
   id="path31" />
     <path
   class="fil3"
   d="m 4112,2444 c 60,-143 -60,-341 -192,-432 l -802,1117 c 28,143 91,249 154,350 l 6,11 z m -255,-470 c -135,-60 -298,-37 -404,17 l -811,1072 c 37,35 89,55 149,57 74,9 163,-5 266,-31 z"
   id="path33" />
     <path
   class="fil2"
   d="m 3441,1883 c 12,-15 35,-20 52,-6 17,11 20,34 6,49 l -857,1137 c 37,35 89,55 149,57 74,9 163,-5 266,-31 l 831,-1158 c 12,-14 35,-20 52,-5 17,11 20,34 9,48 l -831,1155 c 28,143 91,249 154,350 l 6,11 868,-1089 c 12,-17 35,-20 52,-5 14,11 17,34 6,48 l -900,1132 c -3,3 -6,6 -12,9 0,0 -2,3 -5,3 l -608,260 -183,78 v 0 c -6,3 -12,3 -17,3 -20,-3 -35,-21 -32,-41 l 23,-183 89,-642 c 0,-6 3,-11 6,-17 z"
   id="path35" />
     <path
   class="fil4"
   d="m 2622,3141 -75,541 138,89 536,-235 -12,-20 c -63,-100 -126,-206 -157,-353 -101,26 -189,38 -267,32 -63,-6 -117,-23 -163,-54 z"
   id="path37" />
    </g>
 </g>
</svg>
