<?xml version="1.0" encoding="UTF-8" standalone="no"?>
<svg
        version="1.1"
        viewBox="-0.5 -0.5 229.68846 126.73752"
        preserveAspectRatio="none"
        id="svg22"
        width="229.68846"
        height="124.73752"
        xmlns="http://www.w3.org/2000/svg"
>
    <defs
            id="defs26"/>
    <path
            style="fill:#ffffff;stroke:none;stroke-width:1px;stroke-linecap:butt;stroke-linejoin:miter;stroke-opacity:1"
            d="M 226.00285,0.28649699 113.2747,11.064848 0.54654085,0.28649699 V 113.45917 L 113.2747,124.23752 226.00285,113.45917 Z"
            id="path980"/>
    <path
            d="m 226.00285,0.28649753 c 3.32548,40.50503847 2.61516,78.23868947 0,113.17267247 m 0,-113.17267247 c 1.14607,35.67633847 -0.54486,72.52212647 0,113.17267247 m 0,0 c -32.9542,2.77543 -65.88961,6.65563 -112.72815,10.77835 m 112.72815,-10.77835 c -31.35722,3.54069 -64.53687,5.81492 -112.72815,10.77835 m 0,0 C 75.47319,121.10102 43.045059,118.43877 0.54654085,113.45917 M 113.2747,124.23752 C 75.416826,120.81001 42.068081,117.02142 0.54654085,113.45917 m 0,0 c -2.16000855,-27.806418 -0.95818927,-46.982827 0,-113.17267247 m 0,113.17267247 c 0.80788505,-25.744089 1.39031385,-51.418117 0,-113.17267247 m 0,0 C 26.981292,3.816407 54.994243,5.4708836 113.2747,11.064848 M 0.54654085,0.28649753 C 44.416585,4.6086157 87.591459,9.1139658 113.2747,11.064848 m 0,0 C 151.92166,7.362484 182.88433,2.8894689 226.00285,0.28649753 M 113.2747,11.064848 C 136.94761,8.6181617 156.93807,6.34393 226.00285,0.28649753"
            fill="none"
            stroke="#c60427"
            stroke-linejoin="round"
            stroke-linecap="round"
            stroke-miterlimit="10"
            stroke-width="1px"
            vector-effect="non-scaling-stroke"
            pointer-events="all"
            id="path18"
    />
</svg>
