<?xml version="1.0" encoding="UTF-8" standalone="no"?>
<svg
        version="1.1"
        viewBox="-0.5 -0.5 231 123.95103"
        preserveAspectRatio="none"
        id="svg22"
        width="231"
        height="123.95103"
        xmlns="http://www.w3.org/2000/svg"
>
    <defs
            id="defs26"/>
    <path
            style="fill:#ffffff;stroke:none;stroke-width:1px;stroke-linecap:butt;stroke-linejoin:miter;stroke-opacity:1"
            d="M 0,1.8011474 20,61.801147 0,121.80115 H 210 L 230,61.801147 210,1.8011474 Z"
            id="path980"/>
    <path
            d="m 0,1.8011474 m 0,0 c 75.16,-1.76999997 150.29,-2.96 210,0 m -210,0 c 66.2,-0.61 134.57,0.29 210,0 m 0,0 c 5.15,17.5399996 12.35,35.0699996 20,59.9999996 M 210,1.8011474 c 6.57,16.6899996 10.79,34.3499996 20,59.9999996 m 0,0 c -5.82,20.12 -10.76,37.38 -20,60.000003 m 20,-60.000003 c -6.36,20.15 -13.39,37.9 -20,60.000003 m 0,0 c -44.93,2.31 -87.18,0.51 -210,0 m 210,0 c -47.77,-0.43 -95.41,-0.74 -210,0 m 0,0 c 6.55,-14.07 9.62,-28.980003 20,-60.000003 M 0,121.80115 C 8.02,98.451147 16.38,75.471147 20,61.801147 m 0,0 C 13.13,41.231147 4.83,24.751147 0,1.8011474 M 20,61.801147 c -4.54,-12.6 -8.76,-23.24 -20,-59.9999996"
            fill="none"
            stroke="#c60427"
            stroke-linejoin="round"
            stroke-linecap="round"
            stroke-miterlimit="10"
            stroke-width="2px"
            pointer-events="all"
            id="path18"
            style="fill:none"/>
</svg>
