<?xml version="1.0" encoding="UTF-8" standalone="no"?>
<svg
   version="1.1"
   viewBox="-1.5 -0.5 233 123.95103"
   preserveAspectRatio="none"
   id="svg22"
   width="231"
   height="123.95103"
   sodipodi:docname="step_arrow_dark.svg"
   inkscape:version="1.1 (c68e22c387, 2021-05-23)"
   xmlns:inkscape="http://www.inkscape.org/namespaces/inkscape"
   xmlns:sodipodi="http://sodipodi.sourceforge.net/DTD/sodipodi-0.dtd"
   xmlns="http://www.w3.org/2000/svg"
   xmlns:svg="http://www.w3.org/2000/svg">
  <sodipodi:namedview
     id="namedview6"
     pagecolor="#505050"
     bordercolor="#eeeeee"
     borderopacity="1"
     inkscape:pageshadow="0"
     inkscape:pageopacity="0"
     inkscape:pagecheckerboard="0"
     showgrid="false"
     inkscape:zoom="4.8874459"
     inkscape:cx="115.5"
     inkscape:cy="61.893268"
     inkscape:window-width="2560"
     inkscape:window-height="1377"
     inkscape:window-x="-8"
     inkscape:window-y="-8"
     inkscape:window-maximized="1"
     inkscape:current-layer="svg22" />
  <defs
     id="defs26" />
  <path
     style="fill:#ffffff;stroke:none;stroke-width:1px;stroke-linecap:butt;stroke-linejoin:miter;stroke-opacity:1"
     d="M 0,1.8011474 20,61.801147 0,121.80115 H 210 L 230,61.801147 210,1.8011474 Z"
     id="path980" />
  <path
     d="m 0,1.8011474 m 0,0 c 75.16,-1.76999997 150.29,-2.96 210,0 m -210,0 c 66.2,-0.61 134.57,0.29 210,0 m 0,0 c 5.15,17.5399996 12.35,35.0699996 20,59.9999996 M 210,1.8011474 c 6.57,16.6899996 10.79,34.3499996 20,59.9999996 m 0,0 c -5.82,20.12 -10.76,37.38 -20,60.000003 m 20,-60.000003 c -6.36,20.15 -13.39,37.9 -20,60.000003 m 0,0 c -44.93,2.31 -87.18,0.51 -210,0 m 210,0 c -47.77,-0.43 -95.41,-0.74 -210,0 m 0,0 c 6.55,-14.07 9.62,-28.980003 20,-60.000003 M 0,121.80115 C 8.02,98.451147 16.38,75.471147 20,61.801147 m 0,0 C 13.13,41.231147 4.83,24.751147 0,1.8011474 M 20,61.801147 c -4.54,-12.6 -8.76,-23.24 -20,-59.9999996"
     fill="none"
     stroke="#c60427"
     stroke-linejoin="round"
     stroke-linecap="round"
     stroke-miterlimit="10"
     stroke-width="1px"
     vector-effect="non-scaling-stroke"
     pointer-events="all"
     id="path18"
     style="fill:none" />
  <path
     style="fill:#000000;stroke-width:0.204606"
     d="m 2.7606746,119.92266 c 2.1764886,-4.92357 4.4766915,-11.56521 7.8737764,-22.734883 0.97542,-3.207197 2.910285,-9.28399 4.299699,-13.503986 3.117481,-9.468565 4.085749,-12.546034 5.488512,-17.444265 L 21.521787,62.40155 17.890795,51.507905 C 13.179889,37.374321 2.4799993,4.9151953 2.0750831,3.5294508 L 1.7612062,2.4552702 105.6388,2.4573537 l 103.87759,0.00208 0.8034,2.7089438 c 0.44187,1.4899193 2.02361,6.3458125 3.51499,10.7908745 3.97684,11.853005 7.13217,21.342687 11.51736,34.638481 l 3.90008,11.824926 -1.65815,5.157359 c -0.91197,2.836545 -4.02914,12.062804 -6.92703,20.502795 -4.98058,14.505657 -8.63173,25.584707 -10.37053,31.468337 l -0.77397,2.6189 -7.9827,-0.16363 c -10.41983,-0.2136 -172.398897,-0.21289 -187.868737,8.2e-4 l -11.9046278,0.16445 z"
     id="path82"
     transform="matrix(1.008658,0,0,1,-1.5,-0.5)" />
</svg>
