<?xml version="1.0" encoding="UTF-8" standalone="no"?>
<svg
        xmlns="http://www.w3.org/2000/svg"
        version="1.1"
        width="88px"
        height="53px"
        viewBox="-0.5 -0.5 88 53">
    <g>
        <path d="M 73.42 51 C 79.66 50.15 84.12 43.69 83.37 36.57 C 82.62 29.45 76.95 24.38 70.7 25.23 C 70.63 14.6 64.09 5.46 54.97 3.23 C 45.85 1 36.59 6.29 32.7 15.96 C 29.82 12.2 25.25 10.79 21.09 12.36 C 16.94 13.94 14.03 18.2 13.7 23.17 C 6.95 22.89 1.28 28.89 1.03 36.57 C 0.78 44.25 6.05 50.72 12.8 51 Z"
              fill="#c60427" stroke="none" pointer-events="none"/>
        <path d="M 44.13 46.56 L 44.13 31.37" fill="none" stroke="#ffffff" stroke-width="5"
              stroke-miterlimit="10" pointer-events="none"/>
        <path d="M 44.13 24.37 L 47.63 31.37 L 40.63 31.37 Z" fill="#ffffff" stroke="#ffffff"
              stroke-width="5" stroke-miterlimit="10" pointer-events="none"/>
    </g>
</svg>
