<?xml version="1.0" encoding="UTF-8"?>
<!DOCTYPE svg PUBLIC "-//W3C//DTD SVG 1.1//EN" "http://www.w3.org/Graphics/SVG/1.1/DTD/svg11.dtd">
<svg xmlns="http://www.w3.org/2000/svg" xmlns:xlink="http://www.w3.org/1999/xlink" version="1.1" width="91px" height="91px" viewBox="-0.5 -0.5 91 91"><defs><style type="text/css">@import url(https://fonts.googleapis.com/css?family=Architects+Daughter);&#xa;</style></defs><g><path d="M 82.03 46.55 L 61.63 41.45 L 67.07 5.19 L 85.68 13.65 Z M 65.29 80.08 L 61.67 45.66 L 81.92 50.73 L 85.54 85.14 Z M 10.08 45.3 L 32.66 48.78 L 29 85.35 L 4.58 80.12 Z M 4.6 5.04 L 30.89 11.96 L 32.7 44.66 L 10.17 41.19 Z M 57.54 41.22 L 36.79 44.67 L 34.97 11.94 L 62.98 4.93 Z M 36.75 48.81 L 57.54 45.35 L 61.19 80.05 L 33.1 85.32 Z M 89.9 12.63 C 90 11.76 89.52 10.92 88.72 10.55 L 66.3 0.36 C 65.88 0.17 65.4 0.13 64.96 0.24 L 32.85 8.27 L 2.64 0.3 C 1.98 0.13 1.26 0.3 0.75 0.76 C 0.24 1.22 0 1.91 0.1 2.58 L 6.32 42.98 L 0.25 81.39 C 0.09 82.46 0.78 83.47 1.84 83.7 L 30.37 89.82 C 30.64 89.87 30.91 89.87 31.18 89.82 L 63.35 83.79 L 87.38 89.8 C 87.54 89.84 87.71 89.86 87.87 89.86 C 88.36 89.86 88.83 89.69 89.21 89.36 C 89.71 88.93 89.97 88.27 89.9 87.61 L 85.85 49.1 Z" fill="#bf0816" stroke="none" pointer-events="all"/></g></svg>