<?xml version="1.0" encoding="UTF-8"?>
<!-- Created with Inkscape (http://www.inkscape.org/) -->
<svg width="37.032mm" height="26.458mm" version="1.1" viewBox="0 0 37.032 26.458" xml:space="preserve" xmlns="http://www.w3.org/2000/svg"><g transform="translate(-94.776 -136.98)"><g transform="matrix(.54666 0 0 .54666 104.47 136.98)"><g stroke-width=".23426"><path d="m0 23.1h8.8v25.3h-8.8z" fill="#0072c6"/><path d="m13.7 16.2h8.8v32.2h-8.8z" fill="#59b4d9"/><path d="m27.5 27.2h8.8v21.2h-8.8z" fill="#3999c6"/><path d="m41.2 19.6h8.8v28.8h-8.8z" fill="#0072c6"/><path d="m4.4 16.9-1.3-1.8 18.7-13.8 9.7 14.1 15-13.2 1 1.1-0.8 0.8 0.5 0.6-16.1 14-9.8-14.2z" fill="#68217a"/></g><g fill="#804998" stroke-width=".484"><circle cx="3.3" cy="16.2" r="3.3"/><circle cx="21.5" cy="3.3" r="3.3"/><circle cx="31" cy="17.1" r="3.3"/><circle cx="46.7" cy="3.7" r="3.3"/></g></g><g transform="matrix(.98951 0 0 .98951 3.308 45.179)"><circle cx="96.189" cy="97.19" r="3.7521" fill="#f00" opacity=".66" stop-color="#000000"/><circle cx="96.189" cy="106.14" r="3.7521" fill="#fc0" opacity=".66" stop-color="#000000"/><circle cx="96.189" cy="115.09" r="3.7521" fill="#37c837" opacity=".66" stop-color="#000000"/></g></g></svg>
