<?xml version="1.0" encoding="UTF-8"?>
<svg width="100.17" height="100" version="1.1" viewBox="-.5 -.5 100.17 100" xml:space="preserve" xmlns="http://www.w3.org/2000/svg"><defs><style type="text/css">@import url(https://fonts.googleapis.com/css?family=Architects+Daughter);
</style><style type="text/css">
   <![CDATA[
    .fil3 {fill:#C60427}
    .fil0 {fill:white}
    .fil2 {fill:#7A000A;fill-rule:nonzero}
    .fil1 {fill:#C60427;fill-rule:nonzero}
    .fil4 {fill:white;fill-rule:nonzero}
   ]]>
  </style>
     
     
     
     
     
    
  
  
 </defs><g transform="matrix(1.1151 0 0 1.1151 -.58666 -.70015)" stroke-width=".8968"><path d="m82.03 46.55-20.4-5.1 5.44-36.26 18.61 8.46zm-16.74 33.53-3.62-34.42 20.25 5.07 3.62 34.41zm-55.21-34.78 22.58 3.48-3.66 36.57-24.42-5.23zm-5.48-40.26 26.29 6.92 1.81 32.7-22.53-3.47zm52.94 36.18-20.75 3.45-1.82-32.73 28.01-7.01zm-20.79 7.59 20.79-3.46 3.65 34.7-28.09 5.27zm53.15-36.18c0.1-0.87-0.38-1.71-1.18-2.08l-22.42-10.19c-0.42-0.19-0.9-0.23-1.34-0.12l-32.11 8.03-30.21-7.97c-0.66-0.17-1.38 0-1.89 0.46s-0.75 1.15-0.65 1.82l6.22 40.4-6.07 38.41c-0.16 1.07 0.53 2.08 1.59 2.31l28.53 6.12c0.27 0.05 0.54 0.05 0.81 0l32.17-6.03 24.03 6.01c0.16 0.04 0.33 0.06 0.49 0.06 0.49 0 0.96-0.17 1.34-0.5 0.5-0.43 0.76-1.09 0.69-1.75l-4.05-38.51z" fill="#bf0816" pointer-events="all" stroke-width=".80426"/></g><g transform="matrix(1.1151 0 0 1.1151 .057535 .057535)" clip-rule="evenodd" shape-rendering="geometricPrecision" stroke-width=".046096"><path class="fil2" d="m29.636 60.725c-0.6972-0.74528-1.5146-1.5867-2.2839-2.332-3.9187-3.8706-7.02-6.972-7.02-13.511 0-2.6926 0.48083-5.4334 1.5146-7.9817 0.96166-2.3561 2.332-4.5438 4.2072-6.5633l0.26446-0.26446 0.21637-0.2885c2.1877-2.1156 4.6159-3.9909 7.2364-5.2891 2.332-1.178 4.8804-1.8752 7.4288-1.8752 2.6926 0 5.4333 0.69715 7.9817 1.9473 2.7648 1.2982 5.3853 3.1735 7.525 5.217 2.6205 2.6205 4.5438 4.9766 5.842 7.3086 1.3223 2.356 1.8752 4.7602 1.731 7.3085-0.14425 2.332-0.88953 4.8323-2.1397 7.3086-1.2982 2.8128-3.2456 5.5776-5.2891 8.126l-12.478 15.362c-1.178 1.2982-2.4762 1.9954-3.7985 1.9954-1.2982 0.07212-2.6205-0.62508-3.9188-1.9954l-12.405-13.655-0.07212-0.04808c-2.332-2.3561-4.063-5.0487-5.2891-7.9336-1.2502-3.0292-1.8752-6.2027-1.8752-9.3762 0-3.1494 0.62508-6.2507 1.8031-9.2319 1.1059-2.6686 2.6926-5.2891 4.8083-7.5009v-0.07212l0.2885-0.19233 0.26446-0.36062c2.4763-2.4763 5.3131-4.688 8.3423-6.1305 2.6926-1.3704 5.5055-2.1397 8.5347-2.1397 3.0292 0 6.2026 0.84145 9.1597 2.2118 3.1735 1.5146 6.2027 3.6542 8.6308 6.0584l0.88953 0.91357c5.5055 5.5055 8.9434 8.9434 8.3424 18.656l-0.07212 0.21637-1.5146 4.8804-0.07212 0.14425-3.5822 6.7556-0.14425 0.12021-9.1597 11.852-1.3704-1.1059 9.1597-11.78 3.51-6.6113 1.5146-4.6881c0.55295-8.8712-2.6926-12.045-7.8615-17.214-0.60104-0.55295-0.60104-0.62508-0.88953-0.88953-2.332-2.2839-5.0968-4.3515-8.126-5.7218-2.7648-1.2502-5.6497-2.0676-8.4145-2.0676-2.6686 0-5.2891 0.76933-7.7654 1.9954-2.8369 1.3703-5.4574 3.4379-7.8615 5.7939l-0.2885 0.26446c-2.0676 2.2118-3.6303 4.6881-4.664 7.3086-1.1059 2.6926-1.6589 5.5776-1.6589 8.5347 0 2.9811 0.55295 5.9382 1.7069 8.679 0.9857 2.5003 2.4282 4.7602 4.3515 6.7556l0.62508 0.6972 12.453 13.704c0.91358 0.96166 1.8031 1.4425 2.6205 1.4425 0.84145 0 1.6589-0.48083 2.4762-1.4425l12.405-15.29c2.0676-2.4763 3.8706-5.0967 5.0967-7.7894 1.1059-2.2599 1.8752-4.5438 1.9954-6.6835 0.14425-2.1878-0.4087-4.2553-1.5867-6.3228-1.154-2.1397-3.0292-4.3515-5.5054-6.8999-1.9954-1.9954-4.3996-3.7264-6.948-4.8804-2.4041-1.1059-4.9045-1.8031-7.3085-1.8031-2.2599 0-4.5438 0.62508-6.6835 1.6589-2.4041 1.2261-4.6881 3.0292-6.7556 5.0247l-0.19233 0.2885c-1.8031 1.8512-3.1734 3.9909-4.063 6.2508-0.96166 2.356-1.4665 4.8323-1.4665 7.3085 0 5.8661 2.909 8.679 6.5633 12.261 0.67316 0.76933 1.4425 1.5146 2.332 2.4041z" image-rendering="optimizeQuality"/><path class="fil1" d="m43.748 26.899c-0.26446-0.19233-0.33658-0.62508-0.14425-0.88953 0.14425-0.33658 0.55295-0.4087 0.91357-0.21637l13.223 8.4866c0.26446 0.19233 0.4087 0.62508 0.19233 0.88953-0.19233 0.33658-0.60104 0.4087-0.88953 0.21637zm15.579 12.405c0.33658 0.21637 0.4087 0.62508 0.19233 0.88953-0.19233 0.2885-0.62508 0.33658-0.88949 0.14425l-19.353-13.03c-0.33658-0.19233-0.4087-0.60104-0.21637-0.88953 0.21637-0.33658 0.62508-0.4087 0.91357-0.21637zm0.67316 5.9863c0.2885 0.21637 0.36062 0.62508 0.14425 0.88953-0.21637 0.2885-0.62508 0.36062-0.88953 0.14425l-1.9954-1.3704c0.07212 0.14425 0 0.26446-0.07212 0.4087-0.21637 0.33658-0.62508 0.4087-0.88953 0.21637l-23.705-15.507c-0.2885-0.21637-0.33658-0.62508-0.21637-0.88953 0.21637-0.2885 0.62508-0.43275 0.96166-0.21637l19.714 12.958-18.68-13.367c-0.33658-0.2885-0.4087-0.6972-0.12021-0.96166 0.19233-0.2885 0.60104-0.36062 0.88953-0.14425zm-0.33658 2.4763c0.26446 0.14425 0.4087 0.55295 0.26446 0.91357-0.19233 0.26446-0.60104 0.4087-0.88953 0.26446l-30.244-16.396c-0.33658-0.19233-0.4087-0.55295-0.26446-0.88953 0.19233-0.33658 0.55295-0.4087 0.88953-0.2885zm-1.4424 4.9766c0.33658 0.19233 0.4087 0.60104 0.19233 0.88953-0.12021 0.33658-0.52891 0.4087-0.88953 0.21637l-29.691-18.897c-0.33658-0.19233-0.4087-0.60104-0.19233-0.88953 0.19233-0.33658 0.60104-0.4087 0.88953-0.19233zm-31.614-12.958c-0.36062-0.14425-0.48083-0.55295-0.2885-0.81741 0.14425-0.36057 0.55291-0.48078 0.8414-0.28845l28.922 15.17c0.26446 0.12021 0.4087 0.52891 0.26446 0.81741-0.19233 0.33653-0.52891 0.48078-0.88953 0.26441zm28.777 17.214c0.36062 0.21637 0.48083 0.62508 0.2885 0.91357-0.21637 0.33658-0.62508 0.4087-0.88953 0.26446l-30.533-17.694c-0.26446-0.14425-0.4087-0.55295-0.19233-0.91357 0.19233-0.26446 0.55295-0.4087 0.88953-0.19233zm-30.508-13.006c-0.07212-0.21637-0.07212-0.4087 0-0.62508 0.21637-0.26446 0.62508-0.4087 0.88953-0.21637l26.95 16.132c0.33658 0.19233 0.4087 0.62508 0.19233 0.88953-0.14425 0.33658-0.55295 0.4087-0.88953 0.2885l-24.522-14.761 24.186 15.362c0.33658 0.21637 0.4087 0.62508 0.19233 0.91358-0.19233 0.33658-0.62508 0.4087-0.88953 0.19233l-27.551-17.55c-0.36062-0.21637-0.4087-0.62508-0.21637-0.91357 0.21637-0.33658 0.62508-0.4087 0.88953-0.19233zm-1.2982 6.6835c-0.36062-0.14425-0.50487-0.55295-0.2885-0.84145 0.14425-0.33658 0.55295-0.48083 0.81741-0.33658l23.633 11.516c0.36062 0.12021 0.48083 0.52891 0.36062 0.88953-0.14425 0.26446-0.55295 0.4087-0.91357 0.26446zm25.748 13.295c0.36062 0.12021 0.48083 0.55295 0.36062 0.88953-0.21637 0.26446-0.55295 0.4087-0.91358 0.26446l-0.67316-0.33658c-0.14425 0.33658-0.55295 0.48083-0.91357 0.33658l-11.636-4.4717c-0.33658-0.14425-0.48083-0.55295-0.33658-0.88953 0.14425-0.2885 0.48083-0.48083 0.81741-0.33658l6.8277 2.7407-17.165-8.4625c-0.33658-0.21637-0.48083-0.55295-0.26446-0.88953 0.14425-0.36062 0.55295-0.50487 0.81741-0.2885zm-18.8-0.48083c-0.33658-0.14425-0.55295-0.48083-0.48083-0.84145 0.14425-0.33658 0.48083-0.55295 0.81741-0.4087l14.617 4.7602c0.33658 0.07212 0.55295 0.48083 0.4087 0.81741-0.07212 0.2885-0.4087 0.48083-0.76933 0.4087l-12.814-2.5484c-0.33658-0.04808-0.52891-0.4087-0.48083-0.74528 0.07212-0.33658 0.43275-0.62508 0.76933-0.48083l1.178 0.07212z" image-rendering="optimizeQuality"/><path class="fil3" d="m69.449 25.312c1.4425-3.4379-1.4425-8.1981-4.616-10.386l-19.281 26.854c0.67316 3.4379 2.1878 5.9863 3.7024 8.4145l0.14425 0.26446zm-6.1306-11.299c-3.2456-1.4425-7.1643-0.88953-9.7127 0.4087l-19.498 25.772c0.88953 0.84145 2.1397 1.3223 3.5822 1.3704 1.7791 0.21637 3.9188-0.12021 6.395-0.74528z" fill-rule="evenodd" image-rendering="optimizeQuality"/><path class="fil2" d="m53.317 11.825c0.2885-0.36062 0.84145-0.48083 1.2502-0.14425 0.4087 0.26446 0.48083 0.81741 0.14425 1.178l-20.603 27.335c0.88953 0.84145 2.1397 1.3223 3.5822 1.3704 1.7791 0.21637 3.9188-0.12021 6.395-0.74528l19.978-27.84c0.2885-0.33658 0.84145-0.48083 1.2502-0.12021 0.4087 0.26446 0.48083 0.81741 0.21637 1.154l-19.978 27.768c0.67316 3.4379 2.1878 5.9863 3.7024 8.4145l0.14425 0.26446 20.868-26.181c0.2885-0.4087 0.84145-0.48083 1.2502-0.12021 0.33658 0.26446 0.4087 0.81741 0.14425 1.154l-21.637 27.215c-0.07212 0.07212-0.14425 0.14425-0.2885 0.21637 0 0-0.04808 0.07212-0.12021 0.07212l-14.617 6.2507-4.3996 1.8752c-0.14425 0.07212-0.2885 0.07212-0.4087 0.07212-0.48083-0.07212-0.84145-0.50487-0.76933-0.9857l0.55295-4.3996 2.1397-15.435c0-0.14425 0.07212-0.26446 0.14425-0.4087z" image-rendering="optimizeQuality"/><path class="fil4" d="m33.627 42.069-1.8031 13.006 3.3177 2.1397 12.886-5.6497-0.2885-0.48083c-1.5146-2.4041-3.0292-4.9525-3.7745-8.4866-2.4281 0.62508-4.5438 0.91357-6.419 0.76933-1.5146-0.14425-2.8128-0.55295-3.9188-1.2982z" image-rendering="optimizeQuality"/></g></svg>
