<?xml version="1.0" encoding="UTF-8"?>
<svg width="61.14mm" height="13.834mm" version="1.1" viewBox="0 0 61.14 13.834" xmlns="http://www.w3.org/2000/svg" xmlns:cc="http://creativecommons.org/ns#" xmlns:dc="http://purl.org/dc/elements/1.1/" xmlns:rdf="http://www.w3.org/1999/02/22-rdf-syntax-ns#">
 <metadata>
  <rdf:RDF>
   <cc:Work rdf:about="">
    <dc:format>image/svg+xml</dc:format>
    <dc:type rdf:resource="http://purl.org/dc/dcmitype/StillImage"/>
   </cc:Work>
  </rdf:RDF>
 </metadata>
 <g>
  <g fill="#505050" stroke-width=".26458" aria-label="quality analys">
   <path d="m21.148 12.655q0.13758 0 0.26599-0.05503 0.12841-0.05503 0.22472-0.15593 0.09631-0.10548 0.15134-0.24765 0.05962-0.14217 0.05962-0.31644v-0.0092q0-0.17427-0.05962-0.31644-0.05503-0.14676-0.15134-0.24765-0.09631-0.1009-0.22472-0.15593-0.12841-0.05503-0.26599-0.05503-0.14217 0-0.27058 0.05503-0.12382 0.05045-0.22013 0.15134-0.09631 0.10089-0.15134 0.24765-0.05503 0.14217-0.05503 0.32103v0.0092q0 0.17427 0.05503 0.32103 0.05503 0.14217 0.15134 0.24306 0.09631 0.10089 0.22013 0.15593 0.12841 0.05503 0.27058 0.05503zm0.6925 0.02752q-0.133 0.18803-0.33479 0.32103-0.1972 0.133-0.49071 0.133-0.21555 0-0.41734-0.08255t-0.35772-0.24306q-0.15593-0.16051-0.25224-0.39441-0.09631-0.23389-0.09631-0.53658v-0.0092q0-0.30268 0.09172-0.53658 0.09631-0.23389 0.25224-0.3944 0.15593-0.16051 0.35772-0.24306 0.20638-0.08255 0.42192-0.08255 0.2981 0 0.4953 0.12841 0.1972 0.12841 0.3302 0.2981v-0.37606h0.55492v3.1552h-0.55492z" fill="#ca2334"/>
   <path d="m23.922 13.137q-0.41275 0-0.63747-0.25224-0.22472-0.25224-0.22472-0.67874v-1.5409h0.55492v1.3758q0 0.28434 0.133 0.44027 0.13758 0.15134 0.38523 0.15134 0.24306 0 0.39441-0.15593 0.15134-0.16051 0.15134-0.44485v-1.3667h0.55492v2.4215h-0.55492v-0.37606q-0.11924 0.17427-0.2981 0.30268-0.17886 0.12382-0.45861 0.12382z"/>
   <path d="m27.426 12.073q-0.10548-0.04128-0.25224-0.06879-0.14217-0.02752-0.30268-0.02752-0.26141 0-0.40816 0.10089-0.14676 0.1009-0.14676 0.27517v0.0092q0 0.17427 0.133 0.26599 0.13758 0.09172 0.33479 0.09172 0.13758 0 0.25224-0.03669 0.11924-0.03669 0.20638-0.1009 0.08714-0.06879 0.133-0.16051 0.05045-0.09631 0.05045-0.21096zm-0.01376 1.0135v-0.2981q-0.12382 0.14676-0.31644 0.24765-0.19262 0.1009-0.46778 0.1009-0.17427 0-0.3302-0.05045-0.15593-0.04586-0.27517-0.13758-0.11465-0.09631-0.18803-0.23389-0.06879-0.14217-0.06879-0.32561v-0.0092q0-0.20179 0.07338-0.34854 0.07338-0.15134 0.20179-0.24765 0.133-0.10089 0.31186-0.14676 0.18344-0.05045 0.3944-0.05045 0.22013 0 0.37148 0.02752 0.15593 0.02752 0.2981 0.07338v-0.04586q0-0.25224-0.15593-0.38523-0.15134-0.133-0.44027-0.133-0.20638 0-0.36689 0.04127-0.16051 0.04128-0.32561 0.11007l-0.15134-0.44482q0.20179-0.09172 0.41275-0.14676 0.21096-0.05503 0.50906-0.05503 0.54116 0 0.80257 0.27058 0.26141 0.26599 0.26141 0.75212v1.4355z"/>
   <path d="m28.655 9.7383h0.55492v3.3479h-0.55492z"/>
   <path d="m29.967 10.665h0.55492v2.4215h-0.55492zm-0.02293-0.89888h0.59619v0.5274h-0.59619z"/>
   <path d="m32.058 13.127q-0.15134 0-0.27975-0.03669t-0.22472-0.11924q-0.09172-0.08255-0.14217-0.21555-0.05045-0.13758-0.05045-0.33937v-1.2749h-0.30727v-0.47696h0.30727v-0.66498h0.55492v0.66499h0.65123v0.47696h-0.65123v1.1878q0 0.16051 0.07796 0.23389 0.07796 0.06879 0.22013 0.06879 0.17886 0 0.34396-0.08255v0.45402q-0.10548 0.05962-0.22472 0.09172t-0.27517 0.0321z"/>
   <path d="m33.622 13.834q-0.17427 0-0.31186-0.04128-0.133-0.03669-0.26141-0.10548l0.18803-0.41275q0.07796 0.04127 0.15593 0.0642 0.08255 0.02752 0.16969 0.02752 0.11924 0 0.1972-0.05962 0.07796-0.05962 0.14676-0.22013l-1.0089-2.4215h0.59161l0.68792 1.7978 0.6283-1.7978h0.57785l-0.96308 2.4903q-0.07338 0.18803-0.15134 0.31644-0.07796 0.12841-0.17427 0.20638-0.09631 0.08255-0.21096 0.11924-0.11465 0.03669-0.26141 0.03669z"/>
   <path d="m38.731 12.073q-0.10548-0.04128-0.25224-0.06879-0.14217-0.02752-0.30268-0.02752-0.26141 0-0.40816 0.10089-0.14676 0.1009-0.14676 0.27517v0.0092q0 0.17427 0.133 0.26599 0.13758 0.09172 0.33479 0.09172 0.13758 0 0.25224-0.03669 0.11924-0.03669 0.20638-0.1009 0.08714-0.06879 0.133-0.16051 0.05045-0.09631 0.05045-0.21096zm-0.01376 1.0135v-0.2981q-0.12382 0.14676-0.31644 0.24765-0.19262 0.1009-0.46778 0.1009-0.17427 0-0.3302-0.05045-0.15593-0.04586-0.27517-0.13758-0.11465-0.09631-0.18803-0.23389-0.06879-0.14217-0.06879-0.32561v-0.0092q0-0.20179 0.07338-0.34854 0.07338-0.15134 0.20179-0.24765 0.133-0.10089 0.31186-0.14676 0.18344-0.05045 0.3944-0.05045 0.22013 0 0.37148 0.02752 0.15593 0.02752 0.2981 0.07338v-0.04586q0-0.25224-0.15593-0.38523-0.15134-0.133-0.44027-0.133-0.20638 0-0.36689 0.04127-0.16051 0.04128-0.32561 0.11007l-0.15134-0.44485q0.20179-0.09172 0.41275-0.14676 0.21096-0.05503 0.50906-0.05503 0.54116 0 0.80257 0.27058 0.26141 0.26599 0.26141 0.75212v1.4355z"/>
   <path d="m39.928 10.665h0.55492v0.37606q0.05962-0.08714 0.12841-0.16051 0.07338-0.07796 0.1651-0.13758 0.09631-0.05962 0.20638-0.09172 0.11465-0.03669 0.25682-0.03669 0.41275 0 0.63747 0.25224 0.22472 0.25224 0.22472 0.67874v1.5409h-0.55492v-1.3758q0-0.28434-0.13758-0.43568-0.133-0.15593-0.38065-0.15593-0.24306 0-0.3944 0.16051-0.15134 0.15593-0.15134 0.44027v1.3667h-0.55492z"/>
   <path d="m44.266 12.073q-0.10548-0.04128-0.25224-0.06879-0.14217-0.02752-0.30268-0.02752-0.26141 0-0.40816 0.10089-0.14676 0.1009-0.14676 0.27517v0.0092q0 0.17427 0.133 0.26599 0.13758 0.09172 0.33479 0.09172 0.13758 0 0.25224-0.03669 0.11924-0.03669 0.20638-0.1009 0.08714-0.06879 0.133-0.16051 0.05045-0.09631 0.05045-0.21096zm-0.01376 1.0135v-0.2981q-0.12382 0.14676-0.31644 0.24765-0.19262 0.1009-0.46778 0.1009-0.17427 0-0.3302-0.05045-0.15593-0.04586-0.27517-0.13758-0.11465-0.09631-0.18803-0.23389-0.06879-0.14217-0.06879-0.32561v-0.0092q0-0.20179 0.07338-0.34854 0.07338-0.15134 0.20179-0.24765 0.133-0.10089 0.31186-0.14676 0.18344-0.05045 0.3944-0.05045 0.22013 0 0.37148 0.02752 0.15593 0.02752 0.2981 0.07338v-0.04586q0-0.25224-0.15593-0.38523-0.15134-0.133-0.44027-0.133-0.20638 0-0.36689 0.04127-0.16051 0.04128-0.32561 0.11007l-0.15134-0.44485q0.20179-0.09172 0.41275-0.14676 0.21096-0.05503 0.50906-0.05503 0.54116 0 0.80257 0.27058 0.26141 0.26599 0.26141 0.75212v1.4355z"/>
   <path d="m45.495 9.7383h0.55492v3.3479h-0.55492z"/>
   <path d="m47.27 13.834q-0.17427 0-0.31186-0.04128-0.133-0.03669-0.26141-0.10548l0.18803-0.41275q0.07796 0.04127 0.15593 0.0642 0.08255 0.02752 0.16969 0.02752 0.11924 0 0.1972-0.05962 0.07796-0.05962 0.14676-0.22013l-1.0089-2.4215h0.59161l0.68792 1.7978 0.6283-1.7978h0.57785l-0.96308 2.4903q-0.07338 0.18803-0.15134 0.31644-0.07796 0.12841-0.17427 0.20638-0.09631 0.08255-0.21096 0.11924-0.11465 0.03669-0.26141 0.03669z"/>
   <path d="m50.338 13.132q-0.26141 0-0.53199-0.09172-0.26599-0.09172-0.4953-0.27058l0.24765-0.37606q0.1972 0.14676 0.39899 0.22472 0.20638 0.07338 0.3944 0.07338 0.17886 0 0.27517-0.06879 0.10089-0.07338 0.10089-0.19262v-0.0092q0-0.06879-0.04586-0.11924-0.04127-0.05045-0.11924-0.08714-0.07338-0.03669-0.17427-0.06879-0.09631-0.0321-0.20179-0.06421-0.133-0.03669-0.27058-0.08714-0.133-0.05045-0.24306-0.12841-0.10548-0.08255-0.17427-0.20179-0.06879-0.11924-0.06879-0.29351v-0.0092q0-0.16969 0.06421-0.30727 0.06879-0.13758 0.18344-0.23389 0.11924-0.09631 0.27517-0.14676 0.16051-0.05045 0.33937-0.05045 0.2293 0 0.4632 0.07338 0.23389 0.07338 0.42651 0.20179l-0.22013 0.3944q-0.17427-0.10548-0.35313-0.1651-0.17886-0.06421-0.3302-0.06421-0.16051 0-0.25224 0.06879-0.08714 0.06879-0.08714 0.17427v0.0092q0 0.0642 0.04586 0.11465 0.04586 0.04586 0.11924 0.08714 0.07796 0.03669 0.17427 0.07338 0.1009 0.0321 0.20638 0.06421 0.133 0.04128 0.266 0.09631 0.133 0.05503 0.23848 0.13758 0.11007 0.07796 0.17886 0.19262 0.06879 0.11465 0.06879 0.27975v0.0092q0 0.19262-0.06879 0.33479-0.06879 0.14217-0.19262 0.23848-0.11924 0.09172-0.28434 0.14217-0.1651 0.04586-0.35313 0.04586z"/>
  </g>
  <g style="font-variant-caps:normal;font-variant-east-asian:normal;font-variant-ligatures:normal;font-variant-numeric:normal" aria-label="t">
   <path d="m52.551 13.094c-0.08561-0.02446-0.16051-0.06421-0.22472-0.11924-0.06115-0.05503-0.10854-0.12688-0.14217-0.21555-0.03363-0.09172-0.05045-0.20485-0.05045-0.33937l9.9e-5 -7.1557h-0.30727v-0.47696h0.30727l-9.9e-5 -2.7816h0.55492l9.9e-5 2.7816h0.65123v0.47696h-0.65123l-9.9e-5 7.0686c-1e-6 0.10701 0.02599 0.18497 0.07796 0.23389 0.05197 0.04586 0.12535 0.06879 0.22013 0.06879 0.11924 0 8.016-0.0011 8.1476-0.0014l5e-3 0.48698c-0.23877 4.09e-4 -7.1621-8.8e-4 -7.7226-6.34e-4 -0.48365 2.12e-4 -0.66732-6e-3 -0.8658-0.02634z" fill="#ca2334" stroke-width=".26458" style="font-variant-caps:normal;font-variant-east-asian:normal;font-variant-ligatures:normal;font-variant-numeric:normal"/>
   <path d="m53.336 5.0281 0.22411-9.322e-4 0.60356 0.81427 0.70503-1.1472 0.9588 5.6245 1.2782-2.9078 0.85207 0.66769 0.78014-4.3745 0.65065 0.52917 1.0832-4.1153" fill="none" stroke="#505050" stroke-width=".47625"/>
  </g>
 </g>
 <g transform="matrix(1.045 0 0 1.045 -.086571 8.3443)" stroke-width=".26458px" aria-label="ohsome">
  <path d="m2.8684-1.6929q0.36548 0 0.65193-0.12841 0.29633-0.13829 0.50377-0.36548 0.20743-0.22719 0.31609-0.52352 0.10866-0.30621 0.10866-0.64206v-0.019756q0-0.34572-0.11853-0.65193-0.11853-0.30621-0.33584-0.5334-0.20743-0.22719-0.50377-0.3556-0.28646-0.13829-0.64206-0.13829t-0.65193 0.13829q-0.28646 0.12841-0.49389 0.3556-0.20743 0.21731-0.31609 0.52352-0.10866 0.30621-0.10866 0.64206v0.019756q0 0.34572 0.11853 0.65193 0.11853 0.29633 0.32597 0.5334 0.21731 0.22719 0.50377 0.36548 0.29633 0.12841 0.64206 0.12841zm-0.019756 1.0372q-0.59267 0-1.1063-0.20743-0.50377-0.21731-0.87912-0.58279-0.36548-0.36548-0.57291-0.85937t-0.20743-1.047v-0.019756q0-0.56303 0.20743-1.0569 0.21731-0.49389 0.58279-0.85937 0.37536-0.37536 0.87912-0.59267 0.51364-0.21731 1.1162-0.21731 0.60254 0 1.1063 0.21731 0.51364 0.20743 0.87912 0.58279 0.37536 0.36548 0.58279 0.85937 0.20743 0.48401 0.20743 1.047v0.019756q0 0.55316-0.21731 1.047-0.20743 0.49389-0.58279 0.86924-0.36548 0.36548-0.87912 0.58279-0.51364 0.21731-1.1162 0.21731z" fill="#ca2334"/>
  <path d="m8.7037-7.9851h1.1952v2.8053q0.12841-0.18768 0.27658-0.34572 0.15804-0.16792 0.3556-0.29633 0.20743-0.12841 0.4445-0.19756 0.24694-0.079022 0.55316-0.079022 0.889 0 1.373 0.54328 0.48401 0.54328 0.48401 1.4619v3.3189h-1.1952v-2.9633q0-0.61242-0.29633-0.93839-0.28646-0.33584-0.81986-0.33584-0.52352 0-0.84949 0.34572-0.32597 0.33584-0.32597 0.94827v2.9436h-1.1952z" fill="#505050"/>
  <path d="m18.459-0.67553q-0.56303 0-1.1458-0.19756-0.57291-0.19756-1.0668-0.58279l0.5334-0.80998q0.42474 0.31609 0.85937 0.48401 0.4445 0.15804 0.84949 0.15804 0.38523 0 0.59267-0.14817 0.21731-0.15804 0.21731-0.41487v-0.019756q0-0.14817-0.09878-0.25682-0.0889-0.10866-0.25682-0.18768-0.15804-0.079022-0.37536-0.14817-0.20743-0.069144-0.43462-0.13829-0.28646-0.079022-0.58279-0.18768-0.28646-0.10866-0.52352-0.27658-0.22719-0.1778-0.37536-0.43462-0.14816-0.25682-0.14816-0.63218v-0.019756q0-0.36548 0.13829-0.66181 0.14817-0.29633 0.39511-0.50377 0.25682-0.20743 0.59267-0.31609 0.34572-0.10866 0.73096-0.10866 0.49389 0 0.99766 0.15804 0.50377 0.15804 0.91863 0.43462l-0.47413 0.84949q-0.37536-0.22719-0.76059-0.3556-0.38523-0.13829-0.7112-0.13829-0.34572 0-0.54328 0.14817-0.18768 0.14817-0.18768 0.37536v0.019756q0 0.13829 0.09878 0.24694 0.09878 0.098778 0.25682 0.18768 0.16792 0.079022 0.37536 0.15804 0.21731 0.069144 0.4445 0.13829 0.28646 0.0889 0.57291 0.20743 0.28646 0.11853 0.51364 0.29633 0.23707 0.16792 0.38523 0.41487 0.14817 0.24694 0.14817 0.60254v0.019756q0 0.41487-0.14817 0.72108-0.14817 0.30621-0.41487 0.51364-0.25682 0.19756-0.61242 0.30621-0.3556 0.098778-0.76059 0.098778z" fill="#ca2334"/>
  <path d="m25.962-1.6929q0.36548 0 0.65193-0.12841 0.29633-0.13829 0.50377-0.36548 0.20743-0.22719 0.31609-0.52352 0.10866-0.30621 0.10866-0.64206v-0.019756q0-0.34572-0.11853-0.65193-0.11853-0.30621-0.33584-0.5334-0.20743-0.22719-0.50377-0.3556-0.28646-0.13829-0.64206-0.13829t-0.65193 0.13829q-0.28646 0.12841-0.49389 0.3556-0.20743 0.21731-0.31609 0.52352-0.10866 0.30621-0.10866 0.64206v0.019756q0 0.34572 0.11853 0.65193 0.11853 0.29633 0.32597 0.5334 0.21731 0.22719 0.50377 0.36548 0.29633 0.12841 0.64206 0.12841zm-0.01975 1.0372q-0.59267 0-1.1063-0.20743-0.50377-0.21731-0.87913-0.58279-0.36548-0.36548-0.57291-0.85937-0.20743-0.49389-0.20743-1.047v-0.019756q0-0.56303 0.20743-1.0569 0.21731-0.49389 0.58279-0.85937 0.37536-0.37536 0.87912-0.59267 0.51364-0.21731 1.1162-0.21731 0.60254 0 1.1063 0.21731 0.51364 0.20743 0.87912 0.58279 0.37536 0.36548 0.58279 0.85937 0.20743 0.48401 0.20743 1.047v0.019756q0 0.55316-0.21731 1.047-0.20743 0.49389-0.58279 0.86924-0.36548 0.36548-0.87912 0.58279-0.51364 0.21731-1.1162 0.21731z" fill="#505050"/>
  <path d="m31.797-5.9898h1.1952v0.79022q0.12841-0.1778 0.27658-0.33584 0.14817-0.15804 0.33584-0.28646 0.19756-0.12841 0.43462-0.19756 0.24694-0.079022 0.54328-0.079022 0.56303 0 0.94827 0.25682 0.39511 0.24694 0.60254 0.66181 0.31609-0.41487 0.74083-0.66181 0.43462-0.25682 1.0273-0.25682 0.85937 0 1.3434 0.52352 0.48401 0.51364 0.48401 1.4718v3.3288h-1.1952v-2.9633q0-0.6223-0.27658-0.94827-0.27658-0.32597-0.78034-0.32597-0.49389 0-0.80998 0.33584-0.30621 0.32597-0.30621 0.95814v2.9436h-1.1952v-2.9732q0-0.61242-0.27658-0.93839-0.27658-0.32597-0.78034-0.32597t-0.80998 0.34572q-0.30621 0.34572-0.30621 0.95814v2.9337h-1.1952z" fill="#ca2334"/>
  <path d="m46.601-3.7475q-0.02963-0.28646-0.12841-0.5334-0.09878-0.25682-0.2667-0.43462-0.16792-0.18768-0.40499-0.29633-0.22719-0.10866-0.52352-0.10866-0.55316 0-0.91863 0.38523-0.3556 0.37536-0.43462 0.98778zm-1.1853 3.0917q-0.56303 0-1.0569-0.19756-0.48401-0.19756-0.84949-0.55316-0.3556-0.3556-0.56303-0.84949-0.20743-0.50377-0.20743-1.1063v-0.019756q0-0.56303 0.18768-1.0569t0.52352-0.85937q0.34572-0.37536 0.80998-0.58279 0.46426-0.21731 1.0273-0.21731 0.6223 0 1.0866 0.22719 0.47413 0.22719 0.78034 0.61242 0.31609 0.38523 0.47413 0.89888 0.15804 0.50377 0.15804 1.0668 0 0.079022-0.0099 0.16792 0 0.079022-0.0099 0.16792h-3.8326q0.09878 0.64206 0.50377 0.98778 0.41487 0.33584 0.99766 0.33584 0.4445 0 0.77047-0.15804 0.32597-0.15804 0.64206-0.46426l0.70132 0.6223q-0.37536 0.4445-0.89888 0.7112-0.51364 0.2667-1.2347 0.2667z" fill="#505050"/>
 </g>
</svg>
