<?xml version="1.0" encoding="UTF-8"?>
<svg width="61.14mm" height="13.834mm" version="1.1" viewBox="0 0 61.14 13.834" xmlns="http://www.w3.org/2000/svg">
 <text x="-0.2055729" y="17.203762" fill="#505050" font-family="'Gotham Light'" font-size="7.0556px" letter-spacing="0px" stroke-width=".26458px" word-spacing="0px" style="line-height:0.330729px" xml:space="preserve"><tspan x="-0.2055729" y="19.62849" fill="#505050" stroke-width=".26458px"/></text>
 <g transform="translate(0 -.10488)">
  <g>
   <g transform="matrix(1.045 0 0 1.045 -.086571 8.4491)" stroke-width=".26458px" aria-label="ohsome">
    <path d="m2.8684-1.6929q0.36548 0 0.65193-0.12841 0.29633-0.13829 0.50377-0.36548 0.20743-0.22719 0.31609-0.52352 0.10866-0.30621 0.10866-0.64206v-0.019756q0-0.34572-0.11853-0.65193-0.11853-0.30621-0.33584-0.5334-0.20743-0.22719-0.50377-0.3556-0.28646-0.13829-0.64206-0.13829t-0.65193 0.13829q-0.28646 0.12841-0.49389 0.3556-0.20743 0.21731-0.31609 0.52352-0.10866 0.30621-0.10866 0.64206v0.019756q0 0.34572 0.11853 0.65193 0.11853 0.29633 0.32597 0.5334 0.21731 0.22719 0.50377 0.36548 0.29633 0.12841 0.64206 0.12841zm-0.019756 1.0372q-0.59267 0-1.1063-0.20743-0.50377-0.21731-0.87912-0.58279-0.36548-0.36548-0.57291-0.85937t-0.20743-1.047v-0.019756q0-0.56303 0.20743-1.0569 0.21731-0.49389 0.58279-0.85937 0.37536-0.37536 0.87912-0.59267 0.51364-0.21731 1.1162-0.21731 0.60254 0 1.1063 0.21731 0.51364 0.20743 0.87912 0.58279 0.37536 0.36548 0.58279 0.85937 0.20743 0.48401 0.20743 1.047v0.019756q0 0.55316-0.21731 1.047-0.20743 0.49389-0.58279 0.86924-0.36548 0.36548-0.87912 0.58279-0.51364 0.21731-1.1162 0.21731z" fill="#ca2334"/>
    <path d="m8.7037-7.9851h1.1952v2.8053q0.12841-0.18768 0.27658-0.34572 0.15804-0.16792 0.3556-0.29633 0.20743-0.12841 0.4445-0.19756 0.24694-0.079022 0.55316-0.079022 0.889 0 1.373 0.54328 0.48401 0.54328 0.48401 1.4619v3.3189h-1.1952v-2.9633q0-0.61242-0.29633-0.93839-0.28646-0.33584-0.81986-0.33584-0.52352 0-0.84949 0.34572-0.32597 0.33584-0.32597 0.94827v2.9436h-1.1952z" fill="#505050"/>
    <path d="m18.459-0.67553q-0.56303 0-1.1458-0.19756-0.57291-0.19756-1.0668-0.58279l0.5334-0.80998q0.42474 0.31609 0.85937 0.48401 0.4445 0.15804 0.84949 0.15804 0.38523 0 0.59267-0.14817 0.21731-0.15804 0.21731-0.41487v-0.019756q0-0.14817-0.09878-0.25682-0.0889-0.10866-0.25682-0.18768-0.15804-0.079022-0.37536-0.14817-0.20743-0.069144-0.43462-0.13829-0.28646-0.079022-0.58279-0.18768-0.28646-0.10866-0.52352-0.27658-0.22719-0.1778-0.37536-0.43462-0.14816-0.25682-0.14816-0.63218v-0.019756q0-0.36548 0.13829-0.66181 0.14817-0.29633 0.39511-0.50377 0.25682-0.20743 0.59267-0.31609 0.34572-0.10866 0.73096-0.10866 0.49389 0 0.99766 0.15804 0.50377 0.15804 0.91863 0.43462l-0.47413 0.84949q-0.37536-0.22719-0.76059-0.3556-0.38523-0.13829-0.7112-0.13829-0.34572 0-0.54328 0.14817-0.18768 0.14817-0.18768 0.37536v0.019756q0 0.13829 0.09878 0.24694 0.09878 0.098778 0.25682 0.18768 0.16792 0.079022 0.37536 0.15804 0.21731 0.069144 0.4445 0.13829 0.28646 0.0889 0.57291 0.20743 0.28646 0.11853 0.51364 0.29633 0.23707 0.16792 0.38523 0.41487 0.14817 0.24694 0.14817 0.60254v0.019756q0 0.41487-0.14817 0.72108-0.14817 0.30621-0.41487 0.51364-0.25682 0.19756-0.61242 0.30621-0.3556 0.098778-0.76059 0.098778z" fill="#ca2334"/>
    <path d="m25.962-1.6929q0.36548 0 0.65193-0.12841 0.29633-0.13829 0.50377-0.36548 0.20743-0.22719 0.31609-0.52352 0.10866-0.30621 0.10866-0.64206v-0.019756q0-0.34572-0.11853-0.65193-0.11853-0.30621-0.33584-0.5334-0.20743-0.22719-0.50377-0.3556-0.28646-0.13829-0.64206-0.13829t-0.65193 0.13829q-0.28646 0.12841-0.49389 0.3556-0.20743 0.21731-0.31609 0.52352-0.10866 0.30621-0.10866 0.64206v0.019756q0 0.34572 0.11853 0.65193 0.11853 0.29633 0.32597 0.5334 0.21731 0.22719 0.50377 0.36548 0.29633 0.12841 0.64206 0.12841zm-0.01975 1.0372q-0.59267 0-1.1063-0.20743-0.50377-0.21731-0.87913-0.58279-0.36548-0.36548-0.57291-0.85937-0.20743-0.49389-0.20743-1.047v-0.019756q0-0.56303 0.20743-1.0569 0.21731-0.49389 0.58279-0.85937 0.37536-0.37536 0.87912-0.59267 0.51364-0.21731 1.1162-0.21731 0.60254 0 1.1063 0.21731 0.51364 0.20743 0.87912 0.58279 0.37536 0.36548 0.58279 0.85937 0.20743 0.48401 0.20743 1.047v0.019756q0 0.55316-0.21731 1.047-0.20743 0.49389-0.58279 0.86924-0.36548 0.36548-0.87912 0.58279-0.51364 0.21731-1.1162 0.21731z" fill="#505050"/>
    <path d="m31.797-5.9898h1.1952v0.79022q0.12841-0.1778 0.27658-0.33584 0.14817-0.15804 0.33584-0.28646 0.19756-0.12841 0.43462-0.19756 0.24694-0.079022 0.54328-0.079022 0.56303 0 0.94827 0.25682 0.39511 0.24694 0.60254 0.66181 0.31609-0.41487 0.74083-0.66181 0.43462-0.25682 1.0273-0.25682 0.85937 0 1.3434 0.52352 0.48401 0.51364 0.48401 1.4718v3.3288h-1.1952v-2.9633q0-0.6223-0.27658-0.94827-0.27658-0.32597-0.78034-0.32597-0.49389 0-0.80998 0.33584-0.30621 0.32597-0.30621 0.95814v2.9436h-1.1952v-2.9732q0-0.61242-0.27658-0.93839-0.27658-0.32597-0.78034-0.32597t-0.80998 0.34572q-0.30621 0.34572-0.30621 0.95814v2.9337h-1.1952z" fill="#ca2334"/>
    <path d="m46.601-3.7475q-0.02963-0.28646-0.12841-0.5334-0.09878-0.25682-0.2667-0.43462-0.16792-0.18768-0.40499-0.29633-0.22719-0.10866-0.52352-0.10866-0.55316 0-0.91863 0.38523-0.3556 0.37536-0.43462 0.98778zm-1.1853 3.0917q-0.56303 0-1.0569-0.19756-0.48401-0.19756-0.84949-0.55316-0.3556-0.3556-0.56303-0.84949-0.20743-0.50377-0.20743-1.1063v-0.019756q0-0.56303 0.18768-1.0569t0.52352-0.85937q0.34572-0.37536 0.80998-0.58279 0.46426-0.21731 1.0273-0.21731 0.6223 0 1.0866 0.22719 0.47413 0.22719 0.78034 0.61242 0.31609 0.38523 0.47413 0.89888 0.15804 0.50377 0.15804 1.0668 0 0.079022-0.0099 0.16792 0 0.079022-0.0099 0.16792h-3.8326q0.09878 0.64206 0.50377 0.98778 0.41487 0.33584 0.99766 0.33584 0.4445 0 0.77047-0.15804 0.32597-0.15804 0.64206-0.46426l0.70132 0.6223q-0.37536 0.4445-0.89888 0.7112-0.51364 0.2667-1.2347 0.2667z" fill="#505050"/>
   </g>
  </g>
 </g>
 <text x="27.844885" y="12.020469" fill="#505050" font-family="sans-serif" font-size="10.583px" letter-spacing="0px" stroke-width=".26458" word-spacing="0px" style="line-height:1.25" xml:space="preserve"><tspan x="27.844885" y="12.020469" font-family="'Gotham Medium'" font-size="4.5861px" stroke-width=".26458" style="font-variant-caps:normal;font-variant-east-asian:normal;font-variant-ligatures:normal;font-variant-numeric:normal"><tspan fill="#ca2334" font-family="'Gotham Medium'" font-size="4.5861px" style="font-variant-caps:normal;font-variant-east-asian:normal;font-variant-ligatures:normal;font-variant-numeric:normal">q</tspan>uality <tspan fill="#ca2334">a</tspan>pi</tspan></text>
 <path d="m53.336 5.0281 0.22411-9.322e-4 0.60356 0.81427 0.70503-1.1472 0.9588 5.6245 1.2782-2.9078 0.85207 0.66769 0.78014-4.3745 0.65065 0.52917 1.0832-4.1153" fill="none" stroke="#505050" stroke-width=".47625"/>
 <g fill="#ca2334" style="font-variant-caps:normal;font-variant-east-asian:normal;font-variant-ligatures:normal;font-variant-numeric:normal" aria-label="t">
  <path d="m52.551 13.094c-0.08561-0.02446-0.16051-0.06421-0.22472-0.11924-0.06115-0.05503-0.10854-0.12688-0.14217-0.21555-0.03363-0.09172-0.05045-0.20485-0.05045-0.33937l9.9e-5 -7.1557h-0.30727v-0.47696h0.30727l-9.9e-5 -2.7816h0.55492l9.9e-5 2.7816h0.65123v0.47696h-0.65123l-9.9e-5 7.0686c-1e-6 0.10701 0.02599 0.18497 0.07796 0.23389 0.05197 0.04586 0.12535 0.06879 0.22013 0.06879 0.11924 0 8.016-0.0011 8.1476-0.0014l5e-3 0.48698c-0.23877 4.09e-4 -7.1621-8.8e-4 -7.7226-6.34e-4 -0.48365 2.12e-4 -0.66732-6e-3 -0.8658-0.02634z" fill="#ca2334" stroke-width=".26458" style="font-variant-caps:normal;font-variant-east-asian:normal;font-variant-ligatures:normal;font-variant-numeric:normal"/>
 </g>
</svg>
